<svg xmlns="http://www.w3.org/2000/svg" width="320" height="320" viewBox="0 0 320 320">
  <g id="img_rotate_circle" transform="translate(409 -504)">
    <g id="그룹_4" data-name="그룹 4">
      <path id="패스_10" data-name="패스 10" d="M-287.99,571.169c2.577-.622,3.035-1.062,1.906-6.714-.606-3.1-2.176-9.208-2.669-11.252s-1.689-6.411-2.279-8.855c-.966-4-1.065-4.022-3.909-3.335-.355.085-.452-.315-.1-.4s4.776-1.059,5.442-1.22,5.933-1.526,7.221-1.84c9.154-2.21,18.454,2.034,20.7,11.32,2.2,9.109-3.531,17.123-13.084,19.429-1.289.311-5.409,1.165-6.92,1.529-2.532.612-4.6,1.205-6.233,1.646C-288.359,571.587-288.434,571.276-287.99,571.169Zm5.624-33.192-2.933.708c-3.021.729-3.012.962-.384,11.848l2.929,12.131a41.405,41.405,0,0,1,1.221,6.617c1.066-.257,4.753-.959,6.752-1.442,8.043-1.942,11.347-8.9,9.149-18.008C-267.842,540.678-274.413,536.057-282.366,537.977Z" fill="#e0e0e0"/>
      <path id="패스_11" data-name="패스 11" d="M-255.972,554.185c.2-6.855,6.774-12.608,13.081-12.423,6.58.194,8.106,4.309,7.77,6.4-.114.773-.544,1.4-1.961,1.36l-15.584-.458a14.013,14.013,0,0,0-.514,3.507c-.165,5.621,4.6,10.152,10.765,10.333,5.576.164,9.058-3.164,11.731-8.529.245-.542.561-.4.318.1a21.179,21.179,0,0,1-7.493,9.065,12.353,12.353,0,0,1-6.964,1.945C-251.815,565.285-256.157,560.492-255.972,554.185Zm3.409-5.48c5.164.151,8.231.059,11.2.146a4.708,4.708,0,0,0,1.84-.357,2.324,2.324,0,0,0,.454-1.451c.051-1.736-1.615-4.21-5.133-4.313A7.978,7.978,0,0,0-252.563,548.705Z" fill="#e0e0e0"/>
      <path id="패스_12" data-name="패스 12" d="M-229.219,565.378l-3.5,12.837,3.133.854c.352.1.244.494-.109.4s-3.814-1.134-4.519-1.326c-.662-.181-3.818-.946-5.1-1.294-.353-.1-.244-.493.109-.4,3,.818,3.36.537,4.671-4.272l6.348-23.291c1.035-3.794.044-3.637-2.27-3.842-.365-.052-.256-.449.108-.4,2.323.349,4.491-.481,6.22-.911.156-.052.77.3.71.525-.252.927-.686,2.515-1.227,4.5a11.454,11.454,0,0,1,10-2.251c5.029,1.37,8.142,6.816,6.482,12.9a13.238,13.238,0,0,1-16.043,9.133A10.408,10.408,0,0,1-229.219,565.378Zm4.433-16.089-3.475,12.749c1.131,2.109,3.085,5.2,6.173,6.042,4.764,1.3,8.461-1.485,10.228-7.969,1.407-5.162.127-11.245-5.343-12.736A8.489,8.489,0,0,0-224.786,549.289Z" fill="#e0e0e0"/>
      <path id="패스_13" data-name="패스 13" d="M-206.088,568.151l6.477-12.963-2.25-1.124c-.04-.02-.02-.164.1-.2l8.237-3.4c.123-.04.225-.04.144.123l-1.982,3.967c1.227.613,4.171,2.084,5.541,2.717s1.431.715,1.39.8c-.122.246-1.267.7-3.107,1.207-.327-.163-3.619-1.859-5.009-2.554l-6.416,12.841c-1.471,2.944-1.307,4.968.411,5.826,1.635.818,3.986.1,6.3-2.169.286-.266.736.266.409.511-2.637,2-6.316,3.437-9.138,2.027C-207.722,574.387-208.05,572.077-206.088,568.151Z" fill="#e0e0e0"/>
      <path id="패스_14" data-name="패스 14" d="M-198.531,577.5c1.571,1.181,1.974.8,4.667-2.782l15.444-20.53c2.364-3.141,1.88-3.562-.194-4.608-.32-.183-.073-.512.247-.328a17.09,17.09,0,0,0,5.657,1.681c.165.009.6.568.465.75l-11.047,14.685c3.676-1.01,6.821-.931,9.6,1.157,3.287,2.473,4.69,6.16.375,11.9l-7.062,9.388c-1.045,1.388-.643,1.919.626,2.817.293.22.045.548-.247.328s-2.612-2.079-3.2-2.518c-.548-.412-2.21-1.549-3.27-2.346-.292-.219-.045-.548.248-.328,1.643,1.236,1.991,1.383,4.9-2.489l5.5-7.306c3.407-4.53,2.324-7.576.1-9.252-2.265-1.7-4.505-1.844-7.925-.871l-10.5,13.954,2.228,1.677c.292.219.045.548-.248.328s-2.465-1.969-3.049-2.409c-.548-.412-2.5-1.768-3.562-2.565C-199.07,577.606-198.823,577.277-198.531,577.5Z" fill="#e0e0e0"/>
      <path id="패스_15" data-name="패스 15" d="M-158.058,600.984a12.115,12.115,0,0,1,16.624,4.65c3.1,5.652,1.437,12.036-4.736,15.42-5.171,2.834-13.142,1.417-16.46-4.636C-165.728,610.766-164.111,604.3-158.058,600.984Zm9.467,17.175c5.01-2.747,8.909-8.377,6.492-12.786-2.57-4.69-7.6-4.644-13.454-1.435-4.93,2.7-8.811,8.27-6.262,12.92C-159.486,621.107-154.524,621.411-148.591,618.159Z" fill="#e0e0e0"/>
      <path id="패스_16" data-name="패스 16" d="M-156.287,627.429c.809,2.477,1.345,2.35,5.213,1.086,0,0,13.414-4.433,14.24-4.7l.3-.1c-.185-.565-.369-1.13-.583-1.782-.128-.391-.155-.622.062-.693l2.583.839.37,1.13c7.132-.841,14.6,3.164,16.147,7.9.724,2.216.928,4.6.319,4.8a2.714,2.714,0,0,1-2.983-1.621c-.469-1.434-.368-3.921-1.22-6.528-.98-3-4.547-3.757-11.283-1.555l1.592,4.723c.412,1.261.5,1.52.41,1.55a15.462,15.462,0,0,1-3.014-1.276c-.383-1.318-.781-2.535-1.335-4.23-4.519,1.478-14.544,4.8-14.544,4.8-4.244,1.436-4.318,1.653-3.48,4.217.114.348-.277.475-.391.129-.412-1.261-1.12-3.723-1.333-4.375s-1.054-2.927-1.465-4.187C-156.792,627.209-156.4,627.081-156.287,627.429Zm19.453-3.617-.131.042C-136.791,623.8-136.791,623.8-136.834,623.812Z" fill="#e0e0e0"/>
      <path id="패스_17" data-name="패스 17" d="M-148.868,658.246a12.67,12.67,0,0,0-.059,2.1c.593.683,1.582.938,4.038,1.205,2.5.271,7.012.64,9.109.791l6.064.433c11.216.8,11.414.589,11.574-1.645l.059-.821c.026-.365.437-.334.411.03-.092,1.276-.451,4.368-.5,5.052-.046.638-.39,7.351-.449,8.169-.528,7.387-3.962,11.815-9.615,11.411-5.608-.4-9.046-5.506-8.55-12.436.205-2.231.369-4.511.529-6.745l-1.641-.118c-11.171-.8-11.484-.272-11.6,1.324l-.167,2.325c-.026.364-.436.335-.41-.028.1-1.322.437-4.826.487-5.511s.28-5.2.307-5.569S-148.842,657.881-148.868,658.246Zm23.417,8.322-10.349-.742-.412,5.745c-.4,5.654,2.832,9.093,8.3,9.486,5.517.394,8.465-2.373,8.883-8.209l.287-4.012C-118.618,667.148-118.749,667.048-125.451,666.568Z" fill="#e0e0e0"/>
      <path id="패스_18" data-name="패스 18" d="M-141.187,686.135c6.56,2,10.382,9.847,8.546,15.883-1.916,6.3-6.287,6.687-8.219,5.813-.717-.313-1.209-.893-.8-2.249l4.537-14.912a14.034,14.034,0,0,0-3.247-1.418c-5.379-1.637-11,1.765-12.8,7.668-1.623,5.336.672,9.57,5.144,13.559.459.377.234.644-.18.279a21.167,21.167,0,0,1-6.775-9.611,12.338,12.338,0,0,1-.046-7.229C-152.987,687.228-147.222,684.3-141.187,686.135Zm4.391,4.728c-1.5,4.942-2.221,7.925-3.085,10.768a4.674,4.674,0,0,0-.139,1.869,2.32,2.32,0,0,0,1.28.819c1.661.505,4.485-.451,5.51-3.818A7.977,7.977,0,0,0-136.8,690.863Z" fill="#e0e0e0"/>
      <path id="패스_19" data-name="패스 19" d="M-158.61,706.061c-1.077,1.964-.991,2.377,3.178,4.664l10.342,5.671c1.163.639,2.711.289,4.058-.171.186-.055.244.029.24.13a11.033,11.033,0,0,0,.167,3.69c.036.125.014.164-.172.219a7.4,7.4,0,0,1-4.633-.3,6.548,6.548,0,0,1,1.955,4.514,4.82,4.82,0,0,1-.571,2.659c-.528.962-1.19,1.694-1.711,1.408a2.467,2.467,0,0,1-.985-3.148l.813-1.483c.77-1.4,1.108-2.208.868-2.913-.257-.768-1.175-1.375-2.979-2.364l-13.428-7.367-1.342,2.446c-.175.32-.536.123-.36-.2s1.685-2.883,2.037-3.525c.33-.6,1.525-2.971,2.162-4.133C-158.794,705.542-158.434,705.74-158.61,706.061Z" fill="#e0e0e0"/>
      <path id="패스_20" data-name="패스 20" d="M-165.762,718.78c-1.561,2.087-1.149,2.452,2.109,4.89,0,0,11.339,8.427,12.034,8.947l.256.192,1.123-1.5c.247-.33.42-.487.6-.349l.8,2.6-.712.952c4.788,5.352,5.8,13.763,2.818,17.754-1.4,1.867-3.233,3.4-3.746,3.021a2.719,2.719,0,0,1-.388-3.374c.9-1.208,3-2.554,4.64-4.751,1.89-2.525.459-5.879-5.214-10.125l-2.949,4.018c-.795,1.061-.959,1.281-1.032,1.226a15.353,15.353,0,0,1-.689-3.2c.858-1.071,1.625-2.1,2.693-3.523-3.807-2.85-12.291-9.139-12.291-9.139-3.614-2.648-3.834-2.584-5.449-.424-.219.293-.549.046-.33-.246.795-1.062,2.4-3.058,2.812-3.606s1.79-2.544,2.584-3.607C-165.872,718.241-165.542,718.488-165.762,718.78Zm14.143,13.837-.11-.082C-151.583,732.645-151.583,732.645-151.619,732.617Z" fill="#e0e0e0"/>
      <path id="패스_21" data-name="패스 21" d="M-165.265,735.471c4.756,4.939,4.268,13.659-.276,18.035-4.742,4.566-8.75,2.776-10.01,1.072-.473-.624-.621-1.37.4-2.353l11.228-10.813a14.015,14.015,0,0,0-2.145-2.82c-3.9-4.051-10.467-3.819-14.814.367-2.994,2.756-3.676,6.332-2.436,10.913.121.391-.3.48-.359.155-1.486-5.233-.723-11.361,2.9-14.849A10.564,10.564,0,0,1-165.265,735.471Zm1.53,6.268c-3.721,3.583-5.8,5.839-7.94,7.9a4.655,4.655,0,0,0-1.032,1.564,2.317,2.317,0,0,0,.718,1.339c1.205,1.252,4.137,1.792,6.672-.649A7.978,7.978,0,0,0-163.735,741.739Z" fill="#e0e0e0"/>
      <path id="패스_22" data-name="패스 22" d="M-183.071,752.164c3.417,5.628,1.212,14.24-4.493,17.705-3.83,2.324-7.476,2.4-8.306,1.031a2.105,2.105,0,0,1,.942-2.764c1.641-1,4.692,2.178,8.483-.123,3.868-2.349,5.129-7.234,1.9-12.548a10.085,10.085,0,0,0-14.383-3.515c-3.673,2.231-5.122,5.571-4.916,10.313.016.2-.077.313-.179.323a.214.214,0,0,1-.205-.25c-.3-5.433,1.783-11.246,6.081-13.856A10.514,10.514,0,0,1-183.071,752.164Z" fill="#e0e0e0"/>
      <path id="패스_23" data-name="패스 23" d="M-208.33,760.822l5.05,13.582,2.356-.876c.043-.015.134.1.08.214l-3.143,8.338c-.054.117-.123.192-.187.022l-1.545-4.157c-1.286.478-4.371,1.625-5.769,2.194s-1.5.556-1.531.471c-.1-.256.357-1.4,1.239-3.094.343-.127,3.829-1.375,5.286-1.916l-5-13.454c-1.147-3.085-2.738-4.347-4.537-3.678-1.714.637-2.8,2.844-2.714,6.081,0,.39-.7.356-.652-.05.335-3.3,1.8-6.961,4.757-8.061C-211.771,755.371-209.859,756.709-208.33,760.822Z" fill="#e0e0e0"/>
      <path id="패스_24" data-name="패스 24" d="M-221.906,759.832c-2.538.593-2.56,1.3-1.667,5.131l2.775,11.889c.789,3.383,1.444,3.372,3.556,2.363.335-.173.552.152.217.324A15.22,15.22,0,0,0-222,783.376c-.112.12-.822.1-.874-.124l-4.084-17.5c-.894-3.829-1.228-4.456-3.721-3.874-.356.084-.449-.316-.093-.4,1.291-.3,3.627-.752,4.295-.909s3.185-.838,4.476-1.138C-221.644,759.349-221.55,759.749-221.906,759.832Zm4.725,28.9a2.4,2.4,0,0,1-1.764,2.9,2.44,2.44,0,0,1-2.911-1.809,2.4,2.4,0,0,1,1.819-2.867A2.362,2.362,0,0,1-217.181,788.73Z" fill="#e0e0e0"/>
      <path id="패스_25" data-name="패스 25" d="M-231.9,773.313a12.113,12.113,0,0,1-11.447,12.919c-6.438.317-11.453-3.968-11.8-11-.29-5.889,4.468-12.438,11.362-12.777C-237.348,762.14-232.241,766.42-231.9,773.313Zm-19.583,1.008c.28,5.706,3.639,11.674,8.661,11.427,5.342-.262,7.5-4.807,7.171-11.473-.276-5.615-3.588-11.539-8.884-11.279C-249.376,763.234-251.817,767.564-251.485,774.321Z" fill="#e0e0e0"/>
      <path id="패스_26" data-name="패스 26" d="M-256.78,763.834c-1.93-.377-2.124.145-2.981,4.543l-2.256,11.577c-.254,1.3.551,2.669,1.4,3.814.108.16.046.241-.052.268a11.843,11.843,0,0,0-3.644,1.247c-.107.072-.152.064-.26-.1a7.007,7.007,0,0,1-.975-4.8c-2.883,2.6-5.8,3.947-9.255,3.273-4.039-.787-6.912-3.489-5.54-10.535l1.828-9.379c.769-3.949.2-4.152-1.376-4.414-.359-.069-.28-.473.078-.4s3.259.727,3.977.868c.673.131,2.53.4,3.832.653.359.07.28.474-.079.4-1.84-.358-2.35-.131-3.119,3.818l-1.862,9.559c-1.04,5.572,1.267,7.838,4,8.372,2.828.55,4.9-.3,7.572-2.764l3.323-17.053-2.334-.454c-.359-.07-.28-.475.079-.4s2.675.614,3.393.754c.673.131,3.024.5,4.326.75C-256.342,763.5-256.421,763.9-256.78,763.834Z" fill="#e0e0e0"/>
      <path id="패스_27" data-name="패스 27" d="M-296.606,752.7c-2.106-1.611-2.736-1.691-6.418,2.744-2.027,2.422-5.789,7.487-7.067,9.157s-3.92,5.346-5.448,7.343c-2.5,3.267-2.456,3.359-.133,5.137.291.223.041.549-.25.326s-3.828-3.047-4.373-3.463-4.92-3.65-5.973-4.455c-7.478-5.724-10.032-15.625-4.225-23.211,5.7-7.441,15.532-8.031,23.336-2.056,1.053.8,4.309,3.47,5.543,4.416,2.07,1.583,3.831,2.816,5.2,3.808C-296.049,752.723-296.243,752.977-296.606,752.7Zm-29.339,16.518,2.4,1.834c2.468,1.888,2.644,1.735,9.451-7.158l7.586-9.911a41.354,41.354,0,0,1,4.375-5.113c-.871-.668-3.737-3.091-5.37-4.342-6.571-5.029-14.058-3.218-19.755,4.223C-332.986,756.229-332.443,764.243-325.945,769.217Z" fill="#e0e0e0"/>
      <path id="패스_28" data-name="패스 28" d="M-328.752,739.889c-5.4,4.223-14.029,2.84-17.914-2.132-4.054-5.189-1.861-8.99-.035-10.069.669-.407,1.427-.477,2.3.64l9.6,12.285a14.029,14.029,0,0,0,3.028-1.843c4.431-3.463,4.877-10.021,1.161-14.776-2.434-3.263-5.921-4.309-10.607-3.549-.4.081-.446-.347-.117-.373,5.359-.938,11.378.451,14.474,4.414A10.565,10.565,0,0,1-328.752,739.889Zm-6.394.877c-3.182-4.071-5.212-6.371-7.042-8.713a4.685,4.685,0,0,0-1.45-1.188,2.316,2.316,0,0,0-1.406.576c-1.37,1.071-2.209,3.931-.041,6.705A7.977,7.977,0,0,0-335.146,740.766Z" fill="#e0e0e0"/>
      <path id="패스_29" data-name="패스 29" d="M-343.394,720.586c-6.182,2.966-14.309-.233-17.038-5.921-2.847-5.935.109-9.179,2.123-9.841.741-.254,1.5-.16,2.108,1.118L-349.457,720a14.024,14.024,0,0,0,3.352-1.152c5.069-2.432,6.909-8.74,4.24-14.3-2.413-5.028-6.968-6.595-12.96-6.509-.593.032-.608-.316-.056-.328a21.176,21.176,0,0,1,11.491,2.5,12.352,12.352,0,0,1,4.924,5.293C-335.441,711.8-337.707,717.856-343.394,720.586Zm-6.432-.514c-2.235-4.658-3.725-7.34-5.01-10.018A4.682,4.682,0,0,0-356,708.583a2.327,2.327,0,0,0-1.5.262c-1.566.751-3,3.366-1.476,6.54A7.975,7.975,0,0,0-349.826,720.072Z" fill="#e0e0e0"/>
      <path id="패스_30" data-name="패스 30" d="M-346.378,689.219l13.082-2.43-.593-3.191c-.067-.36.338-.435.4-.074s.636,3.927.77,4.646c.125.675.808,3.85,1.05,5.152.067.36-.338.436-.4.075-.567-3.056-.977-3.259-5.877-2.349l-23.735,4.407c-3.865.717-3.294,1.541-2.472,3.714.112.351-.293.427-.4.075-.7-2.242-2.386-3.836-3.524-5.205-.115-.118-.06-.826.165-.867l4.585-.852a11.452,11.452,0,0,1-6.373-8.024c-.951-5.124,2.6-10.294,8.8-11.446a13.236,13.236,0,0,1,15.2,10.477A10.412,10.412,0,0,1-346.378,689.219Zm-16.415,3,12.991-2.413c1.407-1.935,3.342-5.038,2.758-8.185-.9-4.855-5.015-6.975-11.623-5.748-5.26.977-10.181,4.773-9.146,10.348A8.492,8.492,0,0,0-362.793,692.221Z" fill="#e0e0e0"/>
      <path id="패스_31" data-name="패스 31" d="M-359.555,667.982A12.115,12.115,0,0,1-371.043,655.1c.441-6.432,5.285-10.91,12.308-10.429,5.884.4,11.831,5.9,11.358,12.784C-347.818,663.885-352.668,668.455-359.555,667.982Zm1.3-19.569c-5.7-.392-12.022,2.245-12.367,7.263-.366,5.336,3.9,8.012,10.555,8.468,5.61.384,11.882-2.21,12.245-7.5C-347.494,651.809-351.508,648.876-358.258,648.413Z" fill="#e0e0e0"/>
      <path id="패스_32" data-name="패스 32" d="M-347.219,644.41c.6-1.871.111-2.126-4.153-3.5l-11.223-3.625c-1.262-.408-2.716.228-3.953.934-.173.088-.245.015-.261-.085a11.89,11.89,0,0,0-.8-3.767c-.059-.115-.045-.158.128-.246a7,7,0,0,1,4.882-.392c-2.241-3.175-3.224-6.23-2.141-9.58,1.264-3.916,4.291-6.445,11.121-4.238l9.093,2.937c3.828,1.237,4.1.7,4.546-.838.112-.348.5-.221.391.131s-1.113,3.147-1.338,3.843c-.21.652-.7,2.464-1.107,3.722-.112.348-.5.222-.392-.126.576-1.784.413-2.317-3.416-3.554l-9.266-2.993c-5.408-1.7-7.934.319-8.791,2.973-.886,2.741-.287,4.9,1.837,7.848l16.531,5.339.73-2.261c.113-.348.5-.222.392.128s-.93,2.581-1.155,3.278c-.211.652-.854,2.941-1.262,4.2C-346.939,644.885-347.331,644.758-347.219,644.41Z" fill="#e0e0e0"/>
      <path id="패스_33" data-name="패스 33" d="M-348.078,616.171a13.275,13.275,0,0,1-4.066-18.038,9.523,9.523,0,0,1,4.93-3.815l-8.443-5.3c-3.33-2.089-3.718-1.469-4.585.686-.155.334-.5.115-.348-.219a17.013,17.013,0,0,0,1.157-5.8c0-.165.564-.727.758-.6l26.6,16.689c3.8,2.38,4.284,2.633,5.5.7.194-.31.543-.092.348.219a23.6,23.6,0,0,0-2.552,4.928.388.388,0,0,1-.64.246,42.883,42.883,0,0,0-3.819-2.773,11.612,11.612,0,0,1-.642,10.66C-336.646,618.162-342.734,619.523-348.078,616.171Zm14.163-5.2a8.5,8.5,0,0,0,.023-8.3l-10.456-6.559c-2.346.471-6.191,1.352-7.964,4.179-2.624,4.183-1.308,8.623,4.385,12.194C-343.4,615.331-336.927,615.772-333.915,610.97Z" fill="#e0e0e0"/>
      <path id="패스_34" data-name="패스 34" d="M-336.279,575.2a.2.2,0,0,1-.259,0c-.032-.032-.03-.161-.029-.226.062-2.747-.979-7.932-.975-8.384a1.806,1.806,0,0,1,.5-1.32,1.37,1.37,0,0,1,1.52-.016,1.575,1.575,0,0,1,.408,1.072c-.041.807-1.166,6.065-1.1,8.684A.239.239,0,0,1-336.279,575.2Zm3.361,17.625c-4.8-4.9-4.375-13.627.135-18.038,4.706-4.6,8.728-2.845,10-1.15.478.619.631,1.365-.382,2.355l-11.146,10.9a14.051,14.051,0,0,0,2.168,2.8c3.932,4.02,10.5,3.737,14.911-.579,3.987-3.9,4.008-8.717,2-14.364-.22-.552.105-.678.293-.158a21.166,21.166,0,0,1,1.325,11.685,12.355,12.355,0,0,1-3.432,6.364C-322.043,597.532-328.507,597.332-332.918,592.821Zm-1.58-6.257c3.693-3.612,5.755-5.885,7.88-7.963a4.7,4.7,0,0,0,1.02-1.573,2.326,2.326,0,0,0-.729-1.333c-1.215-1.242-4.151-1.76-6.668.7A7.978,7.978,0,0,0-334.5,586.564Z" fill="#e0e0e0"/>
    </g>
    <g id="그룹_5" data-name="그룹 5">
      <path id="패스_35" data-name="패스 35" d="M-249,824c-88.224,0-160-71.776-160-160s71.776-160,160-160S-89,575.776-89,664-160.776,824-249,824Zm0-316.049c-86.046,0-156.049,70-156.049,156.049s70,156.049,156.049,156.049S-92.951,750.046-92.951,664-162.954,507.951-249,507.951Z" fill="#e0e0e0"/>
    </g>
  </g>
</svg>
