<!-- Generator: Adobe Illustrator 24.3.0, SVG Export Plug-In  -->
<svg version="1.1" xmlns="http://www.w3.org/2000/svg" xmlns:xlink="http://www.w3.org/1999/xlink" x="0px" y="0px" width="1066px"
	 height="560px" viewBox="0 0 1066 560" style="overflow:visible;enable-background:new 0 0 1066 560;" xml:space="preserve">
<style type="text/css">
	.st0{fill:#35353E;}
</style>
<defs>
</defs>
<path id="img_txt_1_" class="st0" d="M40.5,267.2c4.6,0,32.3,1,41.5,1c2.6,0,2.6-2.9,0-2.9H69.9c-15.7,0-17.3-1.6-17.3-81.8v-24.5
	h26.1c40.8,0,49.7,17,49.7,42.5v5.2c0,2.6,3.3,2.6,3.3,0c0-4.9-1.6-44.8-1.6-49.7c0-4.6,1.6-39.9,1.6-49.4c0-2.6-3.3-2.6-3.3,0v4.6
	c0,25.5-8.8,42.9-49.7,42.9H52.6v-28.8c0-80.5-2.6-80.8,12.4-80.8h51c36.9-0.3,60.4,28.5,66.3,71.6l2.6,21.3c0.3,2,3.9,2,3.6-0.3
	l-2.6-21.6c-6.5-53.7-7.2-73-8.5-74.6c-5.7-0.8-11.5-1.1-17.3-1c-9.1,0-31.4,1-112.4,1c-23.2,0-35.6-0.3-44.8-0.3
	c-2.6,0-2.6,2.9,0,2.9h5.9c16,0,18.9,1.3,18.9,81.8v57.3c0,80.5-1.6,81.8-17.6,81.8H5.9c-2.6,0-2.6,2.9,0,2.9
	C15,268.1,35.6,267.2,40.5,267.2z M242.7,267.5c4.9,0,17.6,0.7,27.1,0.7c2.6,0,2.6-2.9,0-2.9c-18,0-19.3-2-19.3-36V4.5
	c0-1.6-4.9-2.9-5.9-2.3c-11.1,6.2-23.2,11.8-39.5,14.7c-2.6,0.3-2.6,3.3,0,2.9c16.3-2.9,20.9-2.6,20.9,25.5v183.9
	c0,32.1-0.7,36-14.7,36c-2.6,0-2.6,2.9,0,2.9C220.9,268.1,237.8,267.5,242.7,267.5z M370.1,271.4c49.3,0,85.6-45.1,85.6-87.3
	c0-50.4-34.3-82.8-80.4-82.8c-50.3,0-86.2,41.2-86.2,88.3C289.1,239,324.1,271.4,370.1,271.4z M375.7,267.8
	c-37.9,0-59.5-43.5-59.5-83.8c0-47.8,17-79.5,55.2-79.5c35.9,0,57.8,43.8,57.8,84.7C429.3,237.7,410.3,267.8,375.7,267.8
	L375.7,267.8z M645.5,268.8c0.3,0.5,0.8,0.7,1.3,0.7h3.3c0.7,0,1.6,0,2-0.7l45.4-113.2c14.4-35.7,22.2-48.1,41.5-48.1
	c2,0,1.6-2.9-0.3-2.9c-2.3,0-25.8,0.7-29.7,0.7s-25.8-0.7-33.6-0.7c-2.3,0-2,2.9,0.3,2.9c18.9,0,32.7,12.1,18.9,45.8l-35,87
	l-39.5-100.8c-12.4-31.1-9.5-32.1,8.2-32.1c2.6,0,2.3-2.9-0.3-2.9c-7.2,0-25.5,0.7-29.7,0.7c-3.9,0-22.9-0.7-30.7-0.7
	c-2.3,0-2,2.9,0.3,2.9c10.8,0,17,5.2,20.9,13.1c1.8,3.7,2.9,7.7,3.3,11.8c0.3,4.3,0.7,7.2-0.3,10.8l-40.8,95.2l-36.3-98.8
	c-11.1-31.1-7.8-32.1,10.1-32.1c0.8,0.1,1.6-0.4,1.7-1.2c0.1-0.8-0.4-1.6-1.2-1.7c-0.1,0-0.3,0-0.4,0c-7.5,0-34,0.7-38.2,0.7
	c-3.9,0-27.8-0.7-29.4-0.7s-1.6,2.9,0,2.9c16.7,0,22.2,3.9,35.6,41.9l43.8,119.4c0.3,0.7,0.7,0.7,1.3,0.7h3.6c0.7,0,0.7,0,1-0.7
	l53.2-126.9L645.5,268.8z M813.1,271.4c49.3,0,83.6-41.5,100.9-81.8c1.6-3.6-0.7-4.6-2.3-0.7c-18,38.9-42.1,63.5-82,63.5
	c-44.1,0-79.1-31.4-79.1-71.6c0-8.5,0.9-16.9,2.6-25.2h111.7c10.1,0,13.1-4.6,13.7-10.1c2-15-9.8-44.2-56.8-44.2
	c-45.1,0-90.8,42.5-90.8,91.6C731.1,238,763.1,271.4,813.1,271.4z M834.4,151.7c-21.2,0-43.4,1.3-80.4,1.3
	c8.5-29.4,30.7-44.5,58.8-44.5c25.2,0,37.6,17.3,37.6,29.8c0,4.3-1,8.2-2.9,10.5C846.5,149.7,838.9,151.7,834.4,151.7z M962.1,106.9
	c-8.8,5.9-17.6,13.4-21.6,27.8c-1.3-12.8-8.5-24.9-14-30.1c-1-1-1.3-1-2-0.3c-5.6,5.6-16.7,11.4-22.5,13.7c-0.7,0.3-1,1,0,2
	c7.5,6.9,15,15.4,15,24.9v84.4c0,34-2.3,36-18.3,36c-2.6,0-2.6,2.9,0,2.9c9.5,0,28.4-0.7,33.3-0.7c5.2,0,26.5,0.7,29.1,0.7
	s2.6-2.9,0-2.9h-19.9V155.6c0-28.1,2.3-31.4,25.8-31.4h12.1c11.4,0,16.3-11.8,16.3-17c0-4.3-6.9-5.9-14.7-5.9
	C974.1,101.3,967.6,103.3,962.1,106.9L962.1,106.9z"/>
</svg>
