<!-- Generator: Adobe Illustrator 24.3.0, SVG Export Plug-In  -->
<svg version="1.1" xmlns="http://www.w3.org/2000/svg" xmlns:xlink="http://www.w3.org/1999/xlink" x="0px" y="0px" width="1066px"
	 height="560px" viewBox="0 0 1066 560" style="overflow:visible;enable-background:new 0 0 1066 560;" xml:space="preserve">
<style type="text/css">
	.st0{fill:#35353E;}
</style>
<defs>
</defs>
<path id="img_txt_1_" class="st0" d="M136.6,327.7c48.7,0,76.4,27.2,81.7,81.1c0.3,2.9,3.3,2.3,2.9-0.3l-3.9-69.7
	c-17.6-7.9-53.9-14.4-81.3-14.4c-67.3,0-125.1,48.4-125.1,116.8c0,67.1,53.6,116.5,123.8,116.5c30.1,0,54.2-12.1,67.6-12.1
	c4.9,0,15,5.6,20.3,9.8c1.6,1.3,2.6,1.6,2.6-0.3c0-38.9,0-74.3,0.3-105.3c0-1.6-1-2.6-2-2.6c-47.7,3.6-95.7,3.6-119.6,3.6
	c-2.3,0-2.6,2.3-0.3,2.3c24.2,0,56.2,0.7,70.9,1.3c10.5,0.3,19.6,1,25.5,2.6c0.3,3.3,0.7,20.3,0.7,36.6c0,36,0,40.6-1,42.5
	c-18.3,10.5-37.2,18.3-65.7,18.3c-59.5,0-93.8-46.1-93.8-113.2C40.2,372.8,76.8,327.7,136.6,327.7z M300.9,558
	c22.9,0,57.2-35.3,66-50.4c-0.7,6.9-1.3,18.3-1.3,26.8c0,14.7,6.2,23.2,18.6,23.2c12.7,0,33.3-19,38.5-26.5c1.6-2.6-2.3-5.2-3.9-2.6
	c-3.6,6.5-11.8,18-17.6,18c-6.9,0-9.1-9.2-9.1-27.8c0-12.8,2.6-49.7,2.6-71.6c0-42.9-23.2-59.5-55.2-59.5
	c-23.2,0-50.6,13.7-63.7,22.2c-8.2,5.2-11.4,11.5-11.4,15.4c0,4.6,5.2,7.5,13.1,7.5c8.8,0,11.8-1.6,14.7-5.9
	c7.2-10.5,13.4-36.3,42.1-36.3c23.2,0,33.6,12.4,35,53.3l-27.1,10.5c-60.4,23.6-81.7,45.1-81.7,67.1
	C260.4,541.3,274.8,558,300.9,558z M283.3,511.9c0-24.2,11.4-34,59.5-54.3l26.8-11.5v6.9c0,26.8-1.6,42.9-2,47.1
	c-2.9,10.8-32,43.5-50.3,43.5C301.2,543.6,283.3,529.5,283.3,511.9L283.3,511.9z M491.4,393.1c-8.8,5.9-17.6,13.4-21.6,27.8
	c-1.3-12.8-8.5-24.9-14-30.1c-1-1-1.3-1-2-0.3c-5.6,5.6-16.7,11.5-22.5,13.7c-0.7,0.3-1,1,0,2c7.5,6.9,15,15.4,15,24.9v84.4
	c0,34-2.3,36-18.3,36c-2.6,0-2.6,2.9,0,2.9c9.5,0,28.4-0.7,33.3-0.7c5.2,0,26.5,0.7,29.1,0.7s2.6-2.9,0-2.9h-19.9V441.9
	c0-28.1,2.3-31.4,25.8-31.4h12.1c11.4,0,16.3-11.8,16.3-17c0-4.3-6.9-5.9-14.7-5.9C503.4,387.6,496.9,389.5,491.4,393.1L491.4,393.1
	z M662.2,402.9c-10.1-7.9-24.5-15.4-41.8-15.4c-47,0-93.8,39.3-93.8,93.2c0,45.1,31.4,76.9,68.6,76.9c25.5,0,51.3-13.7,67-36.6
	c-0.3,18.6-2.3,31.7-2.3,33.7c0,2.3,1.3,3.6,3.9,2.9c10.8-2.3,19.6-3.3,39.5-3.3c2.6,0,2.6-2.9,0-2.9c-16.3,0-16.7-3.9-16.7-36
	V290.7c0-1.6-5.6-2.9-6.5-2.3c-11.1,6.2-23.2,12.1-39.5,15c-2.6,0.3-2.6,3.3,0,2.9c16.3-2.9,21.6-2.9,21.6,25.2L662.2,402.9z
	 M606.7,394.7c23.8,0,43.8,20,55.5,32.4v88.7c-11.1,18.3-30.4,31.1-50.3,31.1c-40.5,0-62.4-40.9-62.4-79.2
	C549.5,419.6,571.4,394.8,606.7,394.7L606.7,394.7z M806.9,557.7c49.3,0,83.6-41.5,100.9-81.8c1.6-3.6-0.7-4.6-2.3-0.7
	c-18,38.9-42.1,63.5-82,63.5c-44.1,0-79.1-31.4-79.1-71.6c0-8.5,0.9-16.9,2.6-25.2h111.7c10.1,0,13.1-4.6,13.7-10.1
	c2-15-9.8-44.2-56.8-44.2c-45.1,0-90.8,42.5-90.8,91.6C724.9,524.3,756.9,557.7,806.9,557.7z M828.2,437.9
	c-21.2,0-43.4,1.3-80.4,1.3c8.5-29.4,30.7-44.5,58.8-44.5c25.2,0,37.6,17.3,37.6,29.8c0,4.3-1,8.2-2.9,10.5
	C840.2,436,832.7,437.9,828.2,437.9z M1047.4,454c0-51.4-23.8-66.4-53.2-66.4c-25.2,0-43.8,13.4-60.4,35.7
	c-0.7-13.4-7.5-26.5-13.4-32.4c-1-1-1.3-1-2-0.3c-5.6,5.6-18,11.4-23.8,13.7c-0.7,0.3-1,1,0,2c7.5,6.9,15,15.4,15,24.9v84.4
	c0,32.1-0.7,36-14.7,36c-2.6,0-2.6,2.9,0,2.9c9.5,0,26.5-0.7,31.4-0.7c5.2,0,22.2,0.7,24.8,0.7s2.6-2.9,0-2.9h-17V427.1
	c15.4-20.6,28.7-29.8,49.3-29.8c19.9,0,39.2,12.8,39.5,53.3l0.3,69.7c0,28.8-3.6,31.1-17,31.1c-2.6,0-2.6,2.9,0,2.9
	c9.5,0,22.9-0.7,27.8-0.7c5.2,0,26.5,0.7,29.1,0.7s2.6-2.9,0-2.9c-11.1,0.3-15.7-0.3-15.7-29.1L1047.4,454z"/>

</svg>
