<svg width="40" height="40" viewBox="0 0 40 40" fill="none" xmlns="http://www.w3.org/2000/svg">
<path fill-rule="evenodd" clip-rule="evenodd" d="M12.2155 38.4279C14.6813 39.4708 17.3005 39.9996 20.0004 39.9996C22.7004 39.9996 25.3196 39.4708 27.7852 38.4279C30.1667 37.4206 32.3056 35.9786 34.1423 34.1418C35.9791 32.305 37.4211 30.1662 38.4283 27.7847C39.4712 25.319 40 22.6998 40 19.9998C40 17.2998 39.4712 14.6806 38.4283 12.2149C37.4211 9.83339 35.9791 7.69453 34.1423 5.85776C32.3056 4.021 30.1667 2.57895 27.7852 1.57167C25.3196 0.52879 22.7004 0 20.0004 0C17.3005 0 14.6813 0.52879 12.2155 1.57167C9.83392 2.57898 7.69497 4.02103 5.85814 5.85776C4.02131 7.6945 2.57917 9.83336 1.57179 12.2149C0.528833 14.6806 0 17.2998 0 19.9998C0 22.6997 0.528833 25.3189 1.57179 27.7847C2.57917 30.1662 4.02132 32.3051 5.85814 34.1418C7.69497 35.9785 9.83392 37.4206 12.2155 38.4279ZM17.244 15.4143L18.6579 14.0004L22.9003 18.243L24.3142 19.6569L18.6578 25.3143L17.2431 23.8995L21.4865 19.6569L17.244 15.4143Z" fill="white"/>
</svg>
