<!-- Generator: Adobe Illustrator 24.3.0, SVG Export Plug-In  -->
<svg version="1.1" xmlns="http://www.w3.org/2000/svg" xmlns:xlink="http://www.w3.org/1999/xlink" x="0px" y="0px" width="1444px"
	 height="760px" viewBox="0 0 1444 760" style="overflow:visible;enable-background:new 0 0 1444 760;" xml:space="preserve">
<style type="text/css">
	.st0{fill:#C5BAAE;}
</style>
<defs>
</defs>
<path id="패스_3178_1_" class="st0" d="M952.7,257.5c-6.1,0-11.1-1-15.1-2.9c-4-1.9-6-4.3-6-7c0-2.5,1.4-5.1,4.3-7.7
	c2.6-2.5,6-3.9,9.7-3.9c1.6,0,3.2,0.2,4.7,0.6c2.3,0.7,4.6,1.7,6.7,2.9c2.3,1.2,4.6,2.2,7,3c1.6,0.5,3.3,0.8,5,0.8
	c8.1,0,14.7-2.3,19.7-7c5-4.7,9.9-12.4,14.6-23.2l2.8-6.1l-40.4-89.4c-6.4-14.2-11.3-23.4-14.7-27.4c-3.4-4.1-8.4-6-15-5.8
	c-0.8,0-1.3-0.4-1.3-1.1c0-0.8,0.4-1.1,1.3-1.1h2.3c1.2,0,3.6,0.1,7.1,0.3c5.4,0.2,9.2,0.3,11.3,0.3h7.1c1.3,0,3.6-0.1,7-0.3
	c5.4-0.2,9.4-0.3,11.8-0.3h5.7c1,0,1.5,0.4,1.5,1.1c0,0.8-0.5,1.1-1.5,1.1c-4.2,0-7.3,0.3-9.1,1c-1.6,0.5-3,1.7-3.6,3.3
	c-0.5,1.5-0.3,3.8,0.6,6.9c1.7,4.9,3.6,9.8,5.7,14.5l33.8,74.9l28.4-64c5.1-11.5,6.6-20.5,4.4-26.9c-2.1-6.4-7.5-9.7-16.1-9.7
	c-1,0-1.5-0.4-1.5-1.1s0.5-1.1,1.5-1.1c1.5,0,3.3,0,5.5,0.1c2.1,0.1,5.5,0.1,10,0.1c2.9,0.2,4.9,0.3,6,0.3h6.6
	c1.9,0,5.4-0.1,10.3-0.3c3.2-0.2,5.3-0.3,6.3-0.3h2c0.8,0,1.3,0.4,1.3,1.1s-0.4,1.1-1.3,1.1c-5.4-0.2-10.7,2.8-15.9,8.8
	c-5.2,6-10.8,15.8-16.9,29.3l-40.6,91.2c-6.9,15.6-14.6,26.8-22.9,33.7C974.6,254.1,964.5,257.5,952.7,257.5z M1204.2,143.7
	c0,17.6-6.6,33.3-19.7,47.1c-13.1,13.8-28.7,20.7-46.9,20.7c-18.5,0-33.6-5.9-45.3-17.8s-17.7-27.1-17.7-45.7
	c0-19,6.4-35.1,19.3-48.5s28.8-20.1,47.8-20.1c18.5,0,33.5,5.9,45.1,17.8C1198.3,109.1,1204.1,124.6,1204.2,143.7z M1095.7,143.7
	c0,17.8,4.4,33.1,13.1,45.8s19.8,19.2,33.1,19.2c13.2,0,23.5-5.4,30.7-16.1c7.3-10.8,10.9-25.7,10.9-44.8c0-17.8-4.3-33.2-13-46.2
	c-8.6-13-19.3-19.6-32-19.6c-13.9,0-24.5,5.3-31.9,15.9S1095.7,123.7,1095.7,143.7z M1317.9,183.9c-7.1,9.5-14.5,16.5-22.1,21
	c-7.5,4.5-16.1,6.8-24.9,6.7c-13.7,0-24-4.3-30.7-12.8s-10.2-21.5-10.2-38.7v-46.7c0-4.2-0.1-7.7-0.4-10.3c-0.1-2.1-0.6-4.1-1.4-6
	c-0.7-1.7-2.1-3-3.8-3.6c-1.7-0.5-5.2-0.3-10.7,0.8c-1,0.2-1.5-0.1-1.5-0.9s0.5-1.2,1.5-1.4c5.2-1,10.4-2.4,15.4-4.2
	c5.4-2,10.6-4.4,15.6-7.2c0.5-0.3,1.4-0.3,2.7,0.3s1.9,1,1.9,1.5v80.3c0,13.4,2.6,23.6,7.7,30.7c5.2,7.1,12.6,10.7,22.2,10.7
	c7.1,0.1,14.2-1.7,20.3-5.3c5.9-3.6,12-9.6,18.3-18v-67.3c0-4.2-0.1-7.7-0.4-10.3c-0.1-2.1-0.6-4.1-1.4-6c-0.7-1.7-2.1-3-3.8-3.6
	c-1.7-0.5-5.2-0.3-10.7,0.8c-1,0.2-1.5-0.1-1.5-0.9c0-0.8,0.5-1.2,1.5-1.4c5.1-1,10.2-2.4,15.1-4.2c5.4-2,10.6-4.5,15.6-7.2
	c0.5-0.3,1.4-0.3,2.7,0.3s1.9,1,1.9,1.5v96.5c0,12.9,0.7,20.7,2,23.6c1.4,2.9,5.2,4.3,11.4,4.3c0.8,0,1.3,0.4,1.3,1.1
	s-0.4,1.1-1.3,1.1c-3,0-7.3,0.2-12.8,0.6c-5.5,0.4-12.2,1.1-20.2,1.9c-0.5,0.2-1.1,0.1-1.5-0.1c-0.3-0.3-0.5-1-0.5-2.2
	c0-0.3,0.1-0.5,0.1-0.8c0.1-0.3,0.2-1,0.4-2c0.7-4.7,1.2-8.8,1.5-12.3S1317.9,187.2,1317.9,183.9z M1377.1,208.7
	c-5.1,0.2-8.8,0.3-11,0.3h-5.7c-1,0-1.5-0.4-1.5-1.1c0-0.8,0.5-1.1,1.5-1.1c5.1,0,8.4-0.6,10-1.9c1.6-1.3,2.8-3.7,3.4-7.2
	c0.2-1.9,0.3-4.2,0.5-7.1c0.2-2.9,0.3-6.8,0.3-11.7v-65.5c-0.1-3.2-1.1-6.3-2.8-9c-2.5-3.8-5.5-7.3-8.9-10.3
	c-0.3-0.2-0.5-0.5-0.5-0.9c0-0.3,0.2-0.5,0.5-0.6c3.3-1.4,6.5-3,9.5-4.8c2.9-1.6,5.6-3.6,8-5.8c0.3-0.3,0.6-0.5,0.8-0.4
	c0.3,0.2,0.5,0.4,0.8,0.6c2.9,3.1,5.3,6.6,7,10.4c2,4.1,3.3,8.4,3.9,13c1.1-4.2,3-8.2,5.6-11.7c3.1-3.9,6.9-7.3,11.2-9.9
	c2.2-1.3,4.5-2.4,7-3.2c2.4-0.8,5-1.1,7.5-1.1c2.8-0.1,5.7,0.3,8.4,1.1c2,0.8,3,1.9,3,3.4c-0.1,3.3-1.4,6.5-3.7,8.9
	c-2.2,2.7-5.5,4.3-9,4.3h-9.4c-3.8-0.1-7.6,0.1-11.3,0.8c-2,0.3-3.8,1.3-5.2,2.8c-1.6,1.8-2.5,4-2.8,6.3c-0.6,4.8-0.9,9.6-0.8,14.5
	v85.1h15.5c1,0,1.5,0.4,1.5,1.1c0,0.8-0.5,1.1-1.5,1.1h-2c-1,0-3-0.1-6.1-0.3c-4.7,0-8.1,0-10.2-0.1c-2-0.1-3.5-0.1-4.3-0.1h-2.5
	C1382.5,208.5,1380.3,208.6,1377.1,208.7z"/>

</svg>
