<!-- Generator: Adobe Illustrator 24.3.0, SVG Export Plug-In  -->
<svg version="1.1" xmlns="http://www.w3.org/2000/svg" xmlns:xlink="http://www.w3.org/1999/xlink" x="0px" y="0px" width="1444px"
	 height="760px" viewBox="0 0 1444 760" style="overflow:visible;enable-background:new 0 0 1444 760;" xml:space="preserve">
<style type="text/css">
	.st0{fill:#C5BAAE;}
</style>
<defs>
</defs>
<path id="패스_3178_1_" class="st0" d="M122.1,146l-29.7,0.8c-4.6,0-11.3-0.1-20.2-0.3c-8.9-0.2-17.3-0.4-25.3-0.8l-4.3,10.9
	c-2.7,6.7-4.9,13.5-6.6,20.4c-1.5,5.7-2.4,11.5-2.5,17.4c0,4.1,1.2,7.2,3.7,9.3c2.5,2.1,6,3.2,10.5,3.2c0.5,0,1-0.1,1.5-0.1l3-0.4
	c0.6-0.1,1.2-0.2,1.8-0.3h0.8c0.5,0,0.9,0.1,1.3,0.4c0.3,0.2,0.5,0.5,0.5,0.9c0,0.5-0.3,1-0.8,1.1c-0.7,0.3-1.5,0.4-2.3,0.4h-4.2
	c-1.9,0-5.5-0.1-10.5-0.3c-5.1-0.2-8.6-0.3-10.4-0.3h-6c-0.9,0-2.7,0.1-5.2,0.3c-4.1,0.2-7,0.3-8.9,0.3H3.5c-0.4,0-0.8-0.1-1.1-0.4
	c-0.2-0.2-0.4-0.6-0.4-0.9c0-0.2,0.2-0.4,0.5-0.6c0.3-0.2,0.6-0.4,1-0.4h1c3.5-0.1,7-1.4,9.7-3.7c3-2.5,5.9-6.3,8.6-11.6
	c2.7-4.7,5.6-10.3,8.6-16.8c3-6.4,5.8-12.9,8.1-19.3L88.6,33c0.1-0.3,0.3-0.5,0.6-0.6c0.4-0.1,0.8-0.1,1.1-0.1h2.5
	c0.6,0,1.1,0,1.7,0.1c0.4,0.1,0.7,0.3,0.9,0.6l46.2,110.2c3.6,8.6,6.6,15.8,9.1,21.6c2.5,5.8,4.8,10.7,6.9,14.7
	c4.9,10.7,9,17.9,12.2,21.6s7.5,5.6,13,5.6h2c0.4,0,0.9,0.1,1.3,0.3c0.3,0.1,0.5,0.4,0.5,0.8c0,0.3-0.1,0.7-0.4,0.9
	c-0.3,0.3-0.7,0.4-1.1,0.4c-1.5,0-3.4,0-5.7-0.1s-5.9-0.2-10.8-0.4c-3.2-0.2-5.4-0.3-6.6-0.3h-5.5c-1.4,0-4.1,0.1-8,0.3
	c-6.3,0.2-10.8,0.3-13.5,0.4s-4.8,0.1-6.3,0.1c-0.8,0.1-1.6-0.4-1.9-1.1c-0.3-0.8,0.1-1.1,1.1-1.1h5.3c5.2,0,7.9-2,7.9-6.1
	s-1.9-11.5-5.8-22.4c-1.5-3.9-3.3-8.5-5.5-13.8C127.7,159.1,125.2,152.9,122.1,146z M120.8,143.5v-0.3L83,54.6l-35.3,89.2l43.2-0.3
	H120.8z M215.6,210h-2.8c-0.2,0-0.4,0-0.6-0.1l-0.4-0.4l-34-92.7c-4.9-13.5-9-22.4-12.3-26.4s-8.4-6.1-15.4-6.1c-0.7,0-1-0.4-1-1.1
	s0.3-1.1,1-1.1h1.6c0.9,0,2.8,0.1,5.7,0.3c5.4,0,9.2,0,11.3,0.1c2.1,0.1,3.5,0.1,4.2,0.1h2.9c1.4,0,4.2-0.1,8.3-0.3
	c6.1-0.2,10.4-0.3,13-0.3h5.6c0.8,0,1.3,0.4,1.3,1.1c0,0.8-0.4,1.1-1.3,1.1c-5.9,0-9.6,0.6-11,1.7c-1.4,1.1-2,3.1-1.7,6
	c0.3,2.2,0.8,4.4,1.4,6.6c0.8,2.7,1.9,6.3,3.4,10.7l28.4,76.5l31.2-73.4c0.3-1,0.5-2,0.6-3c0.1-1.9,0-3.7-0.1-5.6
	c-0.2-1.6-0.5-3.2-0.9-4.7c-0.4-1.5-0.9-3-1.7-4.4c-1.4-3.1-3.7-5.7-6.6-7.6c-2.9-1.7-6.3-2.6-9.7-2.5c-0.7,0.1-1.3-0.3-1.4-1
	c0,0,0-0.1,0-0.1c-0.1-0.8,0.3-1.1,1.1-1.1c1.2,0,2.9,0,5.1,0.1c2.2,0.1,5.7,0.1,10.4,0.1c3,0.2,5.1,0.3,6.1,0.3h4.8
	c1.2,0,3.3-0.1,6.4-0.3c4.4-0.2,7.6-0.3,9.7-0.3h4.6c1,0,1.6,0.4,1.7,1.1c0.1,0.8-0.4,1.1-1.4,1.1c-5.9,0-9.5,0.6-10.8,1.7
	c-1.3,1.1-1.7,3.2-1.1,6.2c0.3,2.3,0.9,4.5,1.7,6.6c0.9,2.7,2.2,6.2,3.9,10.4l30.7,78.2l27.2-67.6c4.6-11.3,5.5-20.1,2.8-26.3
	s-8.6-9.3-17.5-9.3c-0.7,0.1-1.3-0.3-1.4-1c0,0,0-0.1,0-0.1c-0.1-0.8,0.3-1.1,1.1-1.1c1.2,0,3,0,5.3,0.1c2.4,0.1,6.3,0.1,11.7,0.1
	c3.4,0.2,5.6,0.3,6.7,0.3h6.2c1.9,0,5.2-0.1,10.2-0.3c3.6-0.2,5.9-0.3,7-0.3h2.2c0.7,0,1.2,0.5,1.3,1.1c0.2,0.8-0.2,1.1-1,1.1
	c-6.8,0-12.3,2.3-16.5,7s-9.5,14.8-15.8,30.4l-35.3,87.9c-0.1,0.2-0.3,0.3-0.5,0.4c-0.3,0.1-0.7,0.2-1,0.1h-2.5
	c-0.2,0-0.4,0-0.6-0.1l-0.4-0.4L257.7,111l-41.4,98.6c-0.2,0-0.3,0.1-0.4,0.3C215.9,209.9,215.7,210,215.6,210z M445.5,174.2
	c-3.9,8.3-11,16.6-21.3,25c-10.3,8.4-19.8,12.6-28.4,12.6c-9.8,0-17.8-2.7-23.9-8c-6-5.1-9.3-12.6-9.1-20.4
	c0-9.3,5.2-18.2,15.5-26.7s26.3-16.9,48-25.4l21.3-8.4c-0.7-15.1-3-25.7-7.1-31.9c-4.1-6.2-10.8-9.3-20.3-9.3
	c-3.1,0-6.3,0.4-9.3,1.3c-2.8,0.9-5.4,2.2-7.7,4.1c-3.7,2.9-7.2,7.3-10.5,13.3c-3.3,6-5,9.2-5.2,9.5c-0.9,1.7-2.4,3-4.2,3.7
	c-2.3,0.7-4.8,1-7.2,0.9c-2.6,0.1-5.1-0.5-7.4-1.7c-1.9-1.1-2.8-2.5-2.8-4.2c0.1-2.2,1-4.4,2.4-6.1c1.8-2.3,4-4.3,6.5-5.8
	c7.9-5,16.3-9.2,25.1-12.3c9.1-3.3,17.3-5,24.4-5c13.9,0,24.5,3.9,31.8,11.8s10.9,19.3,10.9,34.4c0,3.4-0.1,7.5-0.3,12.3
	c-0.2,4.8-0.5,12.3-1,22.5c-0.3,6.9-0.6,11.8-0.6,14.5c-0.1,2.7-0.1,4.8-0.1,6.4c0,7.8,0.6,13.3,1.7,16.6c1.1,3.3,2.9,5,5.5,5
	c1.9,0,4.1-1.4,6.7-4.2c2.7-2.9,5.1-6.2,7-9.8c0.4-0.8,1.4-1.1,2.2-0.8c0.1,0.1,0.3,0.2,0.4,0.3c0.8,0.4,1.1,1.4,0.8,2.2
	c-0.1,0.1-0.2,0.3-0.3,0.4c-3,4.2-7.7,8.7-14.1,13.5s-11.6,7.1-15.6,7.1c-4.7,0-8.3-1.5-10.8-4.6s-3.7-7.5-3.7-13.5
	c0-2.7,0.1-5.8,0.3-9.3S445.1,177.4,445.5,174.2z M380.4,176c-0.1,6.7,2.8,13.2,8,17.5c5.3,4.7,11.9,7.1,19.7,7.1
	c7.3,0,14.9-3.8,23-11.3c8-7.5,12.9-14.3,14.6-20.4c0.8-11,1.4-19,1.5-23.9c0.2-4.9,0.3-9.8,0.3-14.7v-5.3l-20.8,8.9
	c-19,8-31.4,14.7-37.3,20.2C383.4,159.5,380.4,166.8,380.4,176z M527.5,208.7c-4.6,0-7.8,0-9.8-0.1c-1.9-0.1-3.3-0.1-4.2-0.1h-2.4
	c-1.1,0-3.2,0.1-6.2,0.3c-4.6,0.2-8,0.3-10.2,0.3h-5.6c-1,0-1.5-0.4-1.5-1.1c0-0.8,0.5-1.1,1.5-1.1c5.1,0,8.3-1.4,9.5-4.1
	c1.3-2.7,1.9-10.7,1.9-23.9V36c0-4.2-0.1-7.7-0.4-10.3c-0.1-2.1-0.6-4.2-1.4-6.2c-0.7-1.9-2.2-3.3-4.1-3.8
	c-1.9-0.5-5.3-0.3-10.4,0.5c-1,0.2-1.5-0.1-1.5-0.9c0-0.8,0.5-1.2,1.5-1.4c5.1-1,10.2-2.4,15.1-4.2c5.4-2,10.6-4.5,15.6-7.2
	c0.5-0.3,1.4-0.3,2.7,0.3c1.3,0.5,1.9,1,1.9,1.5v157.2l39.9-41.1c4.5-4.5,8.5-9.4,12.1-14.6c3-4.5,4.6-8.4,5-11.8
	c0.3-3-0.4-5.4-2.3-7c-1.9-1.6-4.7-2.4-8.4-2.4c-0.8,0-1.3-0.4-1.3-1.1c0-0.8,0.4-1.1,1.3-1.1c1.4,0,3.2,0,5.6,0.1
	c2.4,0.1,6.1,0.1,11.2,0.1c3,0.2,5.1,0.3,6.2,0.3h2.4c0.7,0,2.2,0,4.7-0.1c2.5-0.1,6.8-0.1,13.1-0.1c3.9-0.2,6.4-0.3,7.6-0.3h2.3
	c0.8,0,1.3,0.4,1.3,1.1c0,0.8-0.4,1.1-1.3,1.1c-7.6,0-16,2.9-25,8.8c-9.1,5.8-19.9,15.4-32.6,28.6l-3,3.3l24.4,39.1
	c9.1,14.6,17.1,25.3,23.9,32.1s13,10.3,18.5,10.3c1,0,1.6,0.4,1.7,1.1c0.1,0.8-0.5,1.1-1.7,1.1h-23.9c-1.8,0-3.6-0.2-5.3-0.6
	c-1.5-0.4-3-1.1-4.3-1.9c-3-1.9-6.4-5.3-10.2-10.4c-3.7-5.1-8.6-12.9-14.7-23.4l-20.8-34.8l-26.2,26.7v42.2h15.5
	c1,0,1.5,0.4,1.5,1.1c0,0.8-0.5,1.1-1.5,1.1h-1.9C532.3,209,530.4,208.9,527.5,208.7z M721,199.6c-5.8,3.9-12,6.9-18.7,9
	c-6.4,2-13,2.9-19.7,2.9c-19,0-34.3-5.7-46.1-17s-17.7-26-17.7-43.9c0-9,1.9-17.8,5.6-26c3.8-8.7,9.2-16.6,16-23.2
	c6.6-6.8,14.4-12.3,23.1-16.1c8.1-3.7,17-5.6,25.9-5.7c5.7-0.1,11.4,0.6,17,1.9c4.7,1.1,9.2,3,13.2,5.7c4.7,3,8.6,7.2,11.2,12.2
	c2.4,4.4,3.4,9.5,2.8,14.5c-0.1,2.3-1.2,4.5-3,6c-1.7,1.3-4.2,1.9-7.6,1.9h-86.6c-0.7,3.1-1.3,6.2-1.7,9.3
	c-0.4,3.4-0.6,6.8-0.6,10.3c0,15.6,5.9,28.7,17.8,39.5c11.9,10.8,26.4,16.1,43.7,16.1c14.1,0,26.2-4,36.6-11.9
	c10.3-8,19.4-20.4,27.2-37.3c0.7-1.5,1.3-2.2,1.9-1.9s0.5,1.1-0.1,2.4c-4.5,10.8-10.4,20.9-17.5,30.1
	C737.3,186.5,729.7,193.7,721,199.6z M711.6,108.2c0-6.1-2.8-11.5-8.3-16.1c-5.5-4.7-12.5-7-21-7c-11.5,0-21.2,3-29.1,9
	c-7.9,6-13.3,14.5-16.4,25.5c5.8,0,11.5,0,17.1-0.1c5.7-0.1,13.2-0.2,22.5-0.4c6.6-0.2,11.4-0.3,14.4-0.4c3-0.1,5.7-0.1,8.3-0.1
	c2.1-0.1,4.1-0.3,6.1-0.9c2.4-0.6,3.7-1.1,4.1-1.4c0.8-1,1.3-2.2,1.7-3.4C711.4,111.3,711.7,109.7,711.6,108.2L711.6,108.2z
	 M764.5,208.7c-4.6,0.2-8,0.3-10.2,0.3h-5.6c-1,0-1.5-0.4-1.5-1.1c0-0.8,0.5-1.1,1.5-1.1c5.1,0,8.3-1.4,9.5-4.1
	c1.3-2.7,1.9-10.7,1.9-23.9v-65.5c-0.1-3.2-1.1-6.3-2.8-9c-2.5-3.8-5.5-7.3-8.9-10.3c-0.3-0.2-0.5-0.5-0.5-0.9
	c0-0.3,0.2-0.5,0.5-0.6c3.7-1.4,7.2-3.1,10.7-5.1c2.9-1.5,5.5-3.4,7.9-5.6c0.3-0.3,0.6-0.5,0.8-0.4c0.3,0.2,0.5,0.4,0.8,0.6
	c3.2,3.2,5.7,7.1,7.4,11.3c1.9,4.4,3,9.1,3,13.8c7.1-9.5,14.5-16.5,22.1-21c7.5-4.5,16.1-6.8,24.9-6.7c13.9,0,24.3,4.3,31.1,13
	c6.9,8.6,10.3,21.5,10.3,38.6v53.1c0,3.6,0.1,6.6,0.3,9.1c0.1,2.1,0.4,4.3,0.8,6.3c0.7,2.7,1.7,4.6,3,5.7c1.4,1.1,4.1,1.6,8.1,1.4
	c1,0,1.5,0.4,1.5,1.1c0,0.8-0.5,1.1-1.5,1.1h-2c-1,0-3-0.1-6.1-0.3c-4.7,0-8.1,0-10.2-0.1c-2-0.1-3.5-0.1-4.3-0.1h-2.3
	c-1,0-2.8,0.1-5.3,0.3c-3.9,0.2-6.8,0.3-8.8,0.3h-5.2c-1,0-1.5-0.4-1.5-1.1c0-0.8,0.5-1.1,1.5-1.1c5.8,0,9.4-1.5,10.8-4.6
	s2.2-9.6,2.2-19.6v-54.1c-0.2-13.4-2.9-23.6-8.3-30.7s-12.8-10.7-22.5-10.7c-7.8,0-14.6,1.7-20.3,5.2c-5.8,3.5-11.8,9.4-18,17.9
	v96.5h13.2c1,0,1.5,0.4,1.5,1.1c0,0.8-0.5,1.1-1.5,1.1h-1.8c-0.8,0-2.5-0.1-5.1-0.3c-4.1,0-6.9,0-8.6-0.1c-1.7-0.1-3-0.1-3.8-0.1
	h-2.4C769.6,208.5,767.5,208.6,764.5,208.7z M23,597.7L23,597.7z"/>
</svg>
