<!-- Generator: Adobe Illustrator 24.3.0, SVG Export Plug-In  -->
<svg version="1.1" xmlns="http://www.w3.org/2000/svg" xmlns:xlink="http://www.w3.org/1999/xlink" x="0px" y="0px" width="1444px"
	 height="760px" viewBox="0 0 1444 760" style="overflow:visible;enable-background:new 0 0 1444 760;" xml:space="preserve">
<style type="text/css">
	.st0{fill:#C5BAAE;}
</style>
<defs>
</defs>
<path id="패스_3178_1_" class="st0" d="M24.6,708.7c-4.7,0.2-8.2,0.3-10.4,0.3H8.6c-1,0-1.5-0.4-1.5-1.1s0.5-1.1,1.5-1.1
	c6.6,0,10.7-1.2,12.3-3.6c1.6-2.4,2.4-9.7,2.4-22.1c0-26.1,0-46.1-0.1-59.9c-0.1-13.9-0.1-21.7-0.1-23.4V596H12.6
	c-0.9,0.1-1.9-0.1-2.8-0.4c-0.5-0.2-0.8-0.6-0.8-1.1l8.9-12.2h6.6c3.9-19,12.9-35.6,27.1-50s28.3-21.6,42.5-21.6
	c6-0.1,12,0.6,17.9,2c5.3,1.4,8,2.9,8,4.6c0,2.7-1.4,5.5-4.2,8.5c-2.4,2.8-5.9,4.4-9.5,4.4c-1.5,0-3.1-0.1-4.6-0.4
	c-1.7-0.3-4.5-0.7-8.4-1.4c-5.9-1.2-10.6-2-14-2.4c-3.2-0.4-6.4-0.6-9.7-0.6c-9.1,0-16,4.8-20.7,14.4c-4.7,9.6-7,23.8-7,42.5
	l27.7-0.3c4.2,0,6.8,0,7.6,0.1s1.3,0.2,1.3,0.4c0,0.7-1.9,3-5.6,7c-3.7,4-5.8,6.2-6.3,6.7c-2.7-0.2-5.6-0.3-8.8-0.3H42.1v34.4
	c0,14.1,0.1,31,0.3,50.7c0,5.6,0.1,9.7,0.4,12.4c0.2,2.1,0.5,4.3,0.9,6.4c0.7,2.7,1.9,4.5,3.6,5.5s5.5,1.4,11.4,1.4
	c1,0,1.5,0.4,1.5,1.1c0,0.8-0.5,1.1-1.5,1.1h-5.7c-2.3,0-5.9-0.1-10.8-0.3c-3-0.2-5.2-0.3-6.3-0.3h-5.1
	C29.5,708.5,27.5,708.6,24.6,708.7z M23,597.7L23,597.7z M206.4,643.7c0,17.6-6.6,33.3-19.7,47.1c-13.1,13.8-28.7,20.7-46.9,20.7
	c-18.5,0-33.6-5.9-45.3-17.8S76.9,666.7,76.9,648c0-19,6.4-35.1,19.3-48.5s28.8-20.1,47.8-20.1c18.5,0,33.5,5.9,45.1,17.8
	S206.4,624.6,206.4,643.7L206.4,643.7z M98,643.7c0,17.8,4.4,33.1,13.1,45.8s19.8,19.2,33.1,19.2c13.2,0,23.5-5.4,30.7-16.1
	c7.3-10.8,10.9-25.7,10.9-44.8c0-17.8-4.3-33.2-13-46.2s-19.3-19.6-32-19.6c-13.9,0-24.5,5.3-31.9,15.9
	C101.7,608.5,98,623.7,98,643.7L98,643.7z M237.4,708.7c-5.1,0.2-8.8,0.3-11,0.3h-5.7c-1,0-1.5-0.4-1.5-1.1c0-0.8,0.5-1.1,1.5-1.1
	c5.1,0,8.4-0.6,10-1.9s2.8-3.7,3.4-7.2c0.2-1.9,0.3-4.2,0.5-7.1c0.2-2.9,0.3-6.8,0.3-11.7v-65.5c-0.1-3.2-1.1-6.3-2.8-9
	c-2.5-3.8-5.5-7.3-8.9-10.3c-0.3-0.2-0.5-0.5-0.5-0.9c0-0.3,0.2-0.5,0.5-0.6c3.3-1.4,6.5-3,9.5-4.8c2.9-1.6,5.6-3.6,8-5.8
	c0.3-0.3,0.6-0.5,0.8-0.4c0.3,0.2,0.5,0.4,0.8,0.6c2.9,3.1,5.3,6.6,7,10.4c2,4.1,3.3,8.4,3.9,13c1.1-4.2,3-8.2,5.6-11.7
	c3.1-3.9,6.9-7.3,11.2-9.9c2.2-1.3,4.5-2.4,7-3.2c2.4-0.8,5-1.1,7.5-1.1c2.8-0.1,5.7,0.3,8.4,1.1c2,0.8,3,1.9,3,3.4
	c-0.1,3.3-1.4,6.5-3.7,8.9c-2.2,2.7-5.5,4.3-9,4.3h-9.4c-3.8-0.1-7.6,0.1-11.3,0.8c-2,0.3-3.8,1.3-5.2,2.8c-1.6,1.8-2.5,4-2.8,6.4
	c-0.6,4.8-0.9,9.6-0.8,14.5v85.1h15.5c1,0,1.5,0.4,1.5,1.1s-0.5,1.1-1.5,1.1h-2c-1,0-3-0.1-6.1-0.3c-4.7,0-8.1,0-10.2-0.1
	c-2-0.1-3.5-0.1-4.3-0.1H244C242.8,708.5,240.6,708.6,237.4,708.7L237.4,708.7z M493.7,639.1c0,20-7.3,37-21.8,51.2
	c-14.6,14.1-31.5,21.2-50.8,21.2c-7.1,0-14.2-1.4-20.8-4.1c-6.6-2.6-12.6-6.4-17.8-11.2c-3.6,4.9-6.1,8.3-7.6,10.2s-2.6,2.8-3.3,2.8
	c-0.4,0-0.7-0.3-0.9-0.6c-0.3-0.5-0.4-1.1-0.4-1.7V536c0-4.2-0.1-7.6-0.4-10c-0.1-2-0.6-3.9-1.4-5.7c-0.6-1.3-1.6-2.2-2.9-2.7
	c-1.3-0.4-5.1,0-11.6,1.1c-1,0.2-1.5-0.1-1.5-0.9c0-0.8,0.5-1.2,1.5-1.4c2.6-0.5,5.2-1.3,7.7-2.2c2.6-0.9,5.4-2.1,8.3-3.4
	c2.2-1.2,5-2.8,8.3-4.7c3.3-1.9,5.5-3.2,6.5-3.7c0.5-0.3,1.4-0.3,2.7,0.3s1.9,1,1.9,1.5v102.6c5.9-8.4,13.7-15.4,22.7-20.2
	c8.6-4.7,18.3-7.2,28.1-7.2c14.9,0,27.6,5.7,38,17.1C488.5,608,493.7,622.2,493.7,639.1L493.7,639.1z M389.3,609.7v72.4
	c7.8,8.3,15.2,14.4,22.1,18.2c6.9,3.8,13.7,5.7,20.3,5.7c13.9,0,24.6-5,32-15s11.2-24.2,11.2-42.7c0-17.1-4.4-31.5-13.1-43.1
	s-20.1-17.4-34.2-17.4c-7.6,0.1-15,2.1-21.5,6C399.4,597.6,393.6,603.1,389.3,609.7z M633.9,669.6c-6.9,13.2-15.7,23.5-26.2,30.9
	s-21.7,11-33.5,11c-17.6,0-31.9-5.7-42.9-17s-16.5-26-16.5-43.9c0-9,1.9-17.8,5.6-26c3.8-8.7,9.2-16.6,16-23.2
	c6.6-6.8,14.4-12.3,23.1-16.1c8.1-3.7,17-5.6,25.9-5.7c5.7-0.1,11.4,0.6,17,1.9c4.7,1.1,9.2,3,13.2,5.7c4.7,3,8.6,7.2,11.2,12.2
	c2.4,4.4,3.4,9.5,2.8,14.5c-0.1,2.3-1.2,4.5-3,6c-1.7,1.3-4.2,1.9-7.6,1.9h-86.6c-0.7,3.1-1.3,6.2-1.7,9.3
	c-0.4,3.4-0.6,6.8-0.6,10.3c0,15.6,5.6,28.7,16.8,39.5s24.7,16.1,40.6,16.1c9.2,0.2,18.3-2.3,26.2-7c7.6-4.7,13.7-11.6,18.3-20.7
	c0.5-0.8,1.1-1.1,1.7-0.8C634.1,668.7,634.3,669.1,633.9,669.6L633.9,669.6z M607.5,608.2c0-6.1-2.8-11.5-8.3-16.1
	c-5.5-4.7-12.5-7-21-7c-11.5,0-21.2,3-29.1,9s-13.3,14.5-16.4,25.5c5.8,0,11.5,0,17.1-0.1c5.7-0.1,13.2-0.2,22.5-0.4
	c6.6-0.2,11.4-0.3,14.4-0.4c3-0.1,5.7-0.1,8.3-0.1c2.1-0.1,4.1-0.3,6.1-0.9c2.4-0.6,3.7-1.1,4.1-1.4c0.8-1,1.3-2.2,1.7-3.4
	C607.3,611.3,607.5,609.7,607.5,608.2z M727.6,674.2c-3.9,8.3-11,16.6-21.3,25c-10.3,8.4-19.8,12.6-28.4,12.6
	c-9.8,0-17.8-2.7-23.9-8c-6-5.1-9.3-12.6-9.1-20.4c0-9.3,5.2-18.2,15.5-26.7s26.3-16.9,48-25.4l21.3-8.4c-0.7-15.1-3-25.7-7.1-31.9
	s-10.8-9.3-20.3-9.3c-3.1,0-6.3,0.4-9.3,1.3c-2.8,0.9-5.4,2.2-7.7,4.1c-3.7,2.9-7.2,7.3-10.5,13.3s-5,9.2-5.2,9.5
	c-0.9,1.7-2.4,3-4.2,3.7c-2.3,0.7-4.8,1-7.2,0.9c-2.6,0.1-5.1-0.5-7.4-1.7c-1.9-1.1-2.8-2.5-2.8-4.2c0.1-2.2,1-4.4,2.4-6.1
	c1.8-2.3,4-4.3,6.5-5.8c7.9-5,16.3-9.2,25.1-12.3c9.1-3.3,17.3-5,24.4-5c13.9,0,24.5,3.9,31.8,11.8c7.3,7.9,10.9,19.3,10.9,34.4
	c0,3.4-0.1,7.5-0.3,12.3c-0.2,4.8-0.5,12.3-1,22.5c-0.3,6.9-0.6,11.8-0.6,14.5c-0.1,2.7-0.1,4.8-0.1,6.3c0,7.8,0.6,13.3,1.7,16.6
	c1.1,3.3,2.9,5,5.5,5c1.9,0,4.1-1.4,6.7-4.2c2.7-2.9,5.1-6.2,7-9.8c0.6-0.8,1.7-1,2.6-0.5c0.8,0.6,1,1.7,0.5,2.5
	c-3,4.2-7.7,8.7-14.1,13.5c-6.4,4.7-11.6,7.1-15.6,7.1c-4.7,0-8.3-1.5-10.8-4.6s-3.7-7.5-3.7-13.5c0-2.7,0.1-5.8,0.3-9.3
	C727.1,680.8,727.3,677.4,727.6,674.2z M662.6,676c-0.1,6.7,2.8,13.2,8,17.5c5.3,4.7,11.9,7.1,19.7,7.1c7.3,0,14.9-3.8,23-11.3
	s12.9-14.3,14.6-20.4c0.8-11,1.4-19,1.5-23.9s0.3-9.8,0.3-14.7v-5.3l-20.8,8.9c-19,8-31.4,14.7-37.3,20.2
	C665.6,659.5,662.6,666.8,662.6,676L662.6,676z M868.4,683.9c-7.1,9.5-14.5,16.5-22.1,21c-7.5,4.5-16.1,6.8-24.9,6.7
	c-13.7,0-24-4.3-30.7-12.8s-10.2-21.5-10.2-38.7v-46.7c0-4.2-0.1-7.7-0.4-10.3c-0.1-2.1-0.6-4.1-1.4-6c-0.7-1.7-2.1-3-3.8-3.6
	c-1.7-0.5-5.2-0.3-10.7,0.8c-1,0.2-1.5-0.1-1.5-0.9c0-0.8,0.5-1.2,1.5-1.4c5.2-1,10.4-2.4,15.4-4.2c5.4-2,10.6-4.4,15.6-7.2
	c0.5-0.3,1.4-0.3,2.7,0.3s1.9,1,1.9,1.5v80.3c0,13.4,2.6,23.6,7.7,30.7c5.2,7.1,12.6,10.7,22.2,10.7c7.1,0.1,14.2-1.7,20.3-5.3
	c5.9-3.6,12-9.6,18.3-18v-67.3c0-4.2-0.1-7.7-0.4-10.3c-0.1-2.1-0.6-4.1-1.4-6c-0.7-1.7-2.1-3-3.8-3.6c-1.7-0.5-5.2-0.3-10.7,0.8
	c-1,0.2-1.5-0.1-1.5-0.9s0.5-1.2,1.5-1.4c5.1-1,10.2-2.4,15.1-4.2c5.4-2,10.6-4.5,15.6-7.2c0.5-0.3,1.4-0.3,2.7,0.3
	c1.3,0.5,1.9,1,1.9,1.5v96.5c0,12.9,0.7,20.7,2,23.6c1.4,2.9,5.2,4.3,11.4,4.3c0.8,0,1.3,0.4,1.3,1.1s-0.4,1.1-1.3,1.1
	c-3,0-7.3,0.2-12.8,0.6c-5.5,0.4-12.2,1.1-20.2,1.9c-0.5,0.2-1.1,0.1-1.5-0.1c-0.3-0.3-0.5-1-0.5-2.2c0-0.3,0.1-0.5,0.1-0.8
	c0.1-0.3,0.2-1,0.4-2c0.7-4.7,1.2-8.8,1.5-12.3S868.4,687.2,868.4,683.9L868.4,683.9z M987.2,678.8c-4.9,10-11,17.9-18.2,23.9
	c-7.2,5.9-14.6,8.9-22.2,8.9c-8.5,0-14.6-2.8-18.5-8.4s-5.8-14.5-5.8-26.7V596h-14c-0.2,0-0.3-0.2-0.3-0.5c0-0.3,0.1-0.6,0.3-0.8
	l32.5-37.3c0.3-0.3,0.6-0.5,0.8-0.4c0.2,0.1,0.3,0.3,0.3,0.6v24.6c9.3,0,16.7,0,22.1-0.1c5.4-0.1,9.5-0.1,12.2-0.1
	c3.4-0.2,5.7-0.2,7-0.1s1.9,0.3,1.9,0.6c0,0.8-1.1,2.5-3.3,4.8c-2.2,2.4-5.2,5.3-9.1,8.9h-6.9c-7.1-0.2-12.4-0.3-16-0.3h-8.4v79.8
	c0,9.1,1.4,16.1,4.2,20.8c2.4,4.5,7.2,7.3,12.3,7.1c5.2,0,10.2-2.3,14.7-7c4.6-4.7,8.3-11.1,11.2-19.4c0.3-1,1.1-1.3,2.3-0.8
	C987.4,677,987.7,677.8,987.2,678.8L987.2,678.8z M1001.7,757.5c-6.1,0-11.1-1-15.1-2.9c-4-1.9-6-4.3-6-7c0-2.5,1.4-5.1,4.3-7.7
	c2.6-2.5,6-3.9,9.7-3.9c1.6,0,3.2,0.2,4.7,0.6c2.3,0.7,4.6,1.7,6.7,2.9c2.3,1.2,4.6,2.2,7,3c1.6,0.5,3.3,0.8,5,0.8
	c8.1,0,14.7-2.3,19.7-7c5-4.7,9.9-12.4,14.6-23.2l2.8-6.1l-40.4-89.4c-6.4-14.2-11.3-23.4-14.7-27.4c-3.4-4.1-8.4-6-15-5.8
	c-0.8,0-1.3-0.4-1.3-1.1s0.4-1.1,1.3-1.1h2.3c1.2,0,3.6,0.1,7.1,0.3c5.4,0.2,9.2,0.3,11.3,0.3h7.1c1.3,0,3.6-0.1,7-0.3
	c5.4-0.2,9.4-0.3,11.8-0.3h5.7c1,0,1.5,0.4,1.5,1.1s-0.5,1.1-1.5,1.1c-4.2,0-7.3,0.3-9.1,1c-1.6,0.5-3,1.7-3.6,3.3
	c-0.5,1.5-0.3,3.8,0.6,6.9c1.7,4.9,3.6,9.8,5.7,14.5l33.8,74.9l28.4-64c5.1-11.5,6.6-20.5,4.4-26.9s-7.5-9.7-16.1-9.7
	c-1,0-1.5-0.4-1.5-1.1c0-0.8,0.5-1.1,1.5-1.1c1.5,0,3.3,0,5.5,0.1c2.1,0.1,5.5,0.1,10,0.1c2.9,0.2,4.9,0.3,6,0.3h6.6
	c1.9,0,5.4-0.1,10.3-0.3c3.2-0.2,5.3-0.3,6.3-0.3h2c0.8,0,1.3,0.4,1.3,1.1s-0.4,1.1-1.3,1.1c-5.4-0.2-10.7,2.8-15.9,8.8
	c-5.2,6-10.8,15.8-16.9,29.3l-40.6,91.2c-6.9,15.6-14.6,26.8-22.9,33.7S1013.6,757.5,1001.7,757.5L1001.7,757.5z"/>
</svg>
