<!-- Generator: Adobe Illustrator 24.3.0, SVG Export Plug-In  -->
<svg version="1.1" xmlns="http://www.w3.org/2000/svg" xmlns:xlink="http://www.w3.org/1999/xlink" x="0px" y="0px" width="1444px"
	 height="760px" viewBox="0 0 1444 760" style="overflow:visible;enable-background:new 0 0 1444 760;" xml:space="preserve">
<style type="text/css">
	.st0{fill:#C5BAAE;}
</style>
<defs>
</defs>
<path id="패스_3178_1_" class="st0" d="M847,433.1c-5.9,8.7-13.9,15.8-23.1,20.8c-8.8,5-18.8,7.6-29,7.6
	c-14.9,0-27.5-5.7-37.8-17.1s-15.5-25.6-15.5-42.5c0-20,7.3-37,21.8-51.2c14.6-14.1,31.6-21.2,51.1-21.2c5.7,0,11.4,1,16.8,3
	c5.7,2.2,11,5.2,15.7,8.9V286c0-3.4-0.1-6.9-0.5-10.3c-0.2-2.1-0.7-4.2-1.5-6.2c-0.7-1.9-2.2-3.3-4.1-3.8c-1.9-0.5-5.4-0.3-10.7,0.8
	c-1,0.2-1.5-0.1-1.5-0.9c0-0.8,0.5-1.2,1.5-1.4c5-0.8,10-2.2,14.7-3.9c5.5-2.2,10.9-4.7,16-7.7c0.5-0.3,1.5-0.3,2.9,0.3
	c1.4,0.5,2.2,1,2.2,1.5v174.5c0,13.5,0.7,21.6,2.2,24.1c1.4,2.5,5,3.8,10.8,3.8c1,0,1.5,0.4,1.5,1.1c0,0.8-0.5,1.1-1.5,1.1
	c-6.9,0-12.6,0.2-17,0.5c-4.6,0.4-9.2,1-13.7,2c-0.8,0.2-1.6,0.1-2.3-0.3c-0.6-0.5-0.9-1.3-0.8-2v-0.8c0-0.7,0.1-1.4,0.3-2
	c0.5-4.7,0.9-8.9,1.1-12.6C846.9,440.2,847,436.6,847,433.1L847,433.1z M803.8,335c-14.2,0-25.2,4.9-32.9,14.7
	c-7.7,9.8-11.6,23.8-11.6,41.9c0,16.9,4.5,31.4,13.6,43.4s20.7,18,34.9,18c7.9-0.1,15.6-2.4,22.2-6.7c7.1-4.3,12.9-10.4,16.9-17.7
	v-68.6c-8.6-9.1-16.3-15.6-23.1-19.4C817.1,337,810.5,335,803.8,335L803.8,335z M995.4,449.6c-5.8,3.9-12,6.9-18.7,9
	c-6.4,2-13,2.9-19.7,2.9c-19,0-34.3-5.7-46.1-17c-11.8-11.3-17.7-26-17.7-43.9c0-9,1.9-17.8,5.6-26c3.8-8.7,9.2-16.6,16-23.2
	c6.6-6.8,14.4-12.3,23.1-16.1c8.1-3.7,17-5.6,25.9-5.7c5.7-0.1,11.4,0.6,17,1.9c4.7,1.1,9.2,3,13.2,5.7c4.7,3,8.6,7.2,11.2,12.2
	c2.4,4.4,3.4,9.5,2.8,14.5c-0.1,2.3-1.2,4.5-3,6c-1.7,1.3-4.2,1.9-7.6,1.9h-86.6c-0.7,3.1-1.3,6.2-1.7,9.3
	c-0.4,3.4-0.6,6.8-0.6,10.3c0,15.6,5.9,28.7,17.8,39.5c11.9,10.8,26.4,16.1,43.7,16.1c14.1,0,26.2-4,36.6-11.9
	c10.3-8,19.4-20.4,27.2-37.3c0.7-1.5,1.3-2.2,1.9-1.9s0.6,1.1-0.1,2.4c-4.5,10.8-10.4,20.9-17.5,30.1
	C1011.6,436.5,1004,443.7,995.4,449.6z M986,358.2c0-6.1-2.8-11.5-8.3-16.1c-5.5-4.7-12.5-7-21-7c-11.5,0-21.2,3-29.1,9
	c-7.9,6-13.3,14.5-16.4,25.5c5.8,0,11.5,0,17.1-0.1c5.7-0.1,13.2-0.2,22.5-0.4c6.6-0.2,11.4-0.3,14.4-0.4s5.7-0.1,8.3-0.1
	c2.1-0.1,4.1-0.3,6.1-0.9c2.4-0.6,3.7-1.1,4.1-1.4c0.8-1,1.3-2.2,1.7-3.4C985.8,361.3,986,359.7,986,358.2L986,358.2z M1125.9,422.4
	c0,11.2-4.3,20.5-13,27.9s-19.5,11.2-32.5,11.2c-4.4,0-8.7-0.2-13.1-0.6c-4.1-0.4-8.2-1-12.1-1.7c-4.9-1-9.8-2.3-14.6-3.9
	c-5.3-1.8-8.4-2.8-9.3-2.9c-0.6-0.1-1.1-0.5-1.4-1c-0.3-0.8-0.4-1.7-0.4-2.5v-1.1c0-0.8,0.1-1.6,0.3-2.4c0.5-5.4,0.8-11.5,1-18.2
	c0.2-6.7,0.3-14.5,0.3-23.5c0-1.2,0.3-1.8,1-1.8s1,0.6,1,1.8c0,10.3,1,19.1,2.9,26.2s4.9,12.8,8.8,17c3.9,4.3,8.8,7.6,14.4,9.4
	c5.8,2,12.9,3,21.2,3c10.8,0,19.1-2.2,24.6-6.5s8.4-10.6,8.4-18.9c0-6.3-2.5-11.6-7.6-16s-16-9.4-32.8-15c-16.8-5.6-28.1-11-34-16.4
	s-8.9-11.7-8.9-19.2c0-11.3,4.6-20.5,13.7-27.4s20.2-10.4,33.3-10.4c4.2,0,8,0.1,11.4,0.3s6.7,0.4,9.9,0.8c3,0.3,6.9,0.9,11.6,1.7
	c4.7,0.8,7.8,1.3,9.5,1.7c0.5,0.1,1,0.3,1.4,0.6c0.3,0.4,0.4,0.9,0.4,1.4c0,1.4,0,3.5-0.1,6.4s-0.2,7.9-0.4,15
	c-0.3,7.6-0.6,13-0.6,16.1c-0.1,3.1-0.1,5.5-0.1,7c0,1-0.3,1.5-1,1.5s-1-0.5-1-1.5c0.1-6.6-0.5-13.1-1.9-19.6
	c-1.1-5.1-3-10-5.7-14.5c-3.2-4.9-7.7-8.7-13.1-11c-5.5-2.5-12.1-3.7-19.9-3.7c-10.5,0-19,2-25.4,6.1c-6.4,4.1-9.7,9.4-9.7,16
	c0,5.9,2.5,11.1,7.4,15.5c4.9,4.4,15.8,9.6,32.8,15.5c17.6,6.1,29.3,11.9,34.9,17.5C1123,407.4,1126,414.8,1125.9,422.4
	L1125.9,422.4z M1174.2,294.4c0.1,3.5-1.4,7-3.9,9.4c-2.5,2.5-6,3.9-9.5,3.8c-7.2,0.1-13.1-5.6-13.2-12.8c0-0.1,0-0.3,0-0.4
	c-0.1-3.6,1.3-7,3.8-9.5c2.4-2.6,5.9-4,9.4-3.9C1168.1,280.9,1174.2,286.9,1174.2,294.4C1174.2,294.4,1174.2,294.4,1174.2,294.4
	L1174.2,294.4z M1153.1,458.7c-4.9,0.2-8.5,0.3-10.8,0.3h-5.7c-1,0-1.5-0.4-1.5-1.1s0.5-1.1,1.5-1.1c6.8,0,11-1.3,12.8-3.9
	c1.8-2.6,2.7-9.9,2.7-21.7v-67.8c0-8.5-0.9-13.8-2.7-16.1c-1.8-2.3-6.3-2.7-13.6-1.1c-1,0.2-1.6-0.1-1.9-0.8
	c-0.3-0.7,0.1-1.1,1.1-1.3c5.4-1.1,10.7-2.9,15.7-5.2c5.6-2.7,10.9-5.8,16-9.3c0.5-0.3,1.4-0.3,2.7,0.3c1.3,0.5,1.9,1,1.9,1.5v99.8
	c0,11.9,0.9,19.1,2.7,21.7c1.8,2.6,6,3.9,12.6,3.9c1,0,1.5,0.4,1.5,1.1s-0.5,1.1-1.5,1.1h-5.6c-2.2,0-5.6-0.1-10.2-0.3
	c-3-0.2-5.1-0.3-6.2-0.3h-5C1158.5,458.5,1156.3,458.6,1153.1,458.7z M1212.5,458.7c-5.1,0.2-8.8,0.3-11,0.3h-5.7
	c-1,0-1.5-0.4-1.5-1.1s0.5-1.1,1.5-1.1c5.1,0,8.4-0.6,10-1.9c1.6-1.3,2.8-3.7,3.4-7.2c0.2-1.9,0.3-4.2,0.5-7.1
	c0.2-2.9,0.3-6.8,0.3-11.7v-65.5c-0.1-3.2-1.1-6.3-2.8-9c-2.5-3.8-5.5-7.3-8.9-10.3c-0.3-0.2-0.5-0.5-0.5-0.9c0-0.3,0.2-0.5,0.5-0.6
	c3.3-1.4,6.5-3,9.5-4.8c2.9-1.6,5.6-3.6,8-5.8c0.3-0.3,0.6-0.5,0.8-0.4c0.3,0.2,0.5,0.4,0.8,0.6c2.9,3.1,5.3,6.6,7,10.4
	c2,4.1,3.3,8.4,3.9,13c1.1-4.2,3-8.2,5.6-11.7c3.1-3.9,6.9-7.3,11.2-9.9c2.2-1.3,4.5-2.4,7-3.2c2.4-0.8,5-1.1,7.5-1.1
	c2.8-0.1,5.7,0.3,8.4,1.1c2,0.8,3,1.9,3,3.4c-0.1,3.3-1.4,6.5-3.7,8.9c-2.2,2.7-5.5,4.3-9,4.3h-9.4c-3.8-0.1-7.6,0.1-11.3,0.8
	c-2,0.3-3.8,1.3-5.2,2.8c-1.6,1.8-2.5,4-2.8,6.4c-0.6,4.8-0.9,9.6-0.8,14.5v85.1h15.5c1,0,1.5,0.4,1.5,1.1s-0.5,1.1-1.5,1.1h-2
	c-1,0-3-0.1-6.1-0.3c-4.7,0-8.1,0-10.2-0.1s-3.5-0.1-4.3-0.1h-2.5C1217.9,458.5,1215.7,458.6,1212.5,458.7L1212.5,458.7z
	 M1371.5,449.6c-5.8,3.9-12,6.9-18.7,9c-6.4,2-13,2.9-19.7,2.9c-19,0-34.3-5.7-46.1-17c-11.8-11.3-17.7-26-17.7-43.9
	c0-9,1.9-17.8,5.6-26c3.8-8.7,9.2-16.6,16-23.2c6.6-6.8,14.4-12.3,23.1-16.1c8.1-3.7,17-5.6,25.9-5.7c5.7-0.1,11.4,0.6,17,1.9
	c4.7,1.1,9.2,3,13.2,5.7c4.7,3,8.6,7.2,11.2,12.2c2.4,4.4,3.4,9.5,2.8,14.5c-0.1,2.3-1.2,4.5-3,6c-1.7,1.3-4.2,1.9-7.6,1.9H1287
	c-0.7,3.1-1.3,6.2-1.7,9.3c-0.4,3.4-0.6,6.8-0.6,10.3c0,15.6,5.9,28.7,17.8,39.5s26.4,16.1,43.7,16.1c14.1,0,26.2-4,36.6-11.9
	s19.4-20.4,27.2-37.3c0.7-1.5,1.3-2.2,1.9-1.9c0.6,0.3,0.6,1.1-0.1,2.4c-4.5,10.8-10.4,20.9-17.5,30.1
	C1387.8,436.5,1380.2,443.7,1371.5,449.6L1371.5,449.6z M1362.1,358.2c0-6.1-2.8-11.5-8.3-16.1c-5.5-4.7-12.5-7-21-7
	c-11.5,0-21.2,3-29.1,9s-13.3,14.5-16.4,25.5c5.8,0,11.5,0,17.1-0.1s13.2-0.2,22.5-0.4c6.6-0.2,11.4-0.3,14.4-0.4
	c3-0.1,5.7-0.1,8.3-0.1c2.1-0.1,4.1-0.3,6.1-0.9c2.4-0.6,3.7-1.1,4.1-1.4c0.8-1,1.3-2.2,1.7-3.4
	C1361.9,361.3,1362.2,359.7,1362.1,358.2L1362.1,358.2z M23,597.7L23,597.7z"/>
</svg>
