<!-- Generator: Adobe Illustrator 24.3.0, SVG Export Plug-In  -->
<svg version="1.1" xmlns="http://www.w3.org/2000/svg" xmlns:xlink="http://www.w3.org/1999/xlink" x="0px" y="0px" width="1444px"
	 height="760px" viewBox="0 0 1444 760" style="overflow:visible;enable-background:new 0 0 1444 760;" xml:space="preserve">
<style type="text/css">
	.st0{fill:#C5BAAE;}
</style>
<defs>
</defs>
<path id="패스_3178_1_" class="st0" d="M45.1,294.4c0.1,3.5-1.4,7-3.9,9.4c-2.5,2.5-6,3.9-9.5,3.8c-7.2,0.1-13.1-5.6-13.2-12.8
	c0-0.1,0-0.3,0-0.4c-0.1-3.6,1.3-7,3.8-9.5c2.4-2.6,5.9-4,9.4-3.9C39.1,280.9,45.1,286.9,45.1,294.4
	C45.1,294.4,45.1,294.4,45.1,294.4z M24.1,458.7c-4.9,0.2-8.5,0.3-10.8,0.3H7.6c-1,0-1.5-0.4-1.5-1.1s0.5-1.1,1.5-1.1
	c6.8,0,11-1.3,12.8-3.9c1.8-2.6,2.7-9.9,2.7-21.7v-67.8c0-8.5-0.9-13.8-2.7-16.1s-6.3-2.7-13.6-1.1c-1,0.2-1.6-0.1-1.9-0.8
	s0.1-1.1,1.1-1.3c5.4-1.1,10.7-2.9,15.7-5.2c5.6-2.7,10.9-5.8,16-9.3c0.5-0.3,1.4-0.3,2.7,0.3c1.3,0.5,1.9,1,1.9,1.5v99.8
	c0,11.9,0.9,19.1,2.7,21.7c1.8,2.6,6,3.9,12.6,3.9c1,0,1.5,0.4,1.5,1.1s-0.5,1.1-1.5,1.1H52c-2.2,0-5.6-0.1-10.2-0.3
	c-3-0.2-5.1-0.3-6.2-0.3h-5C29.5,458.5,27.3,458.6,24.1,458.7z M84.3,458.7c-4.6,0.2-8,0.3-10.2,0.3h-5.6c-1,0-1.5-0.4-1.5-1.1
	s0.5-1.1,1.5-1.1c5.1,0,8.3-1.4,9.5-4.1s1.9-10.7,1.9-23.9v-65.5c-0.1-3.2-1.1-6.3-2.8-9c-2.5-3.8-5.5-7.3-8.9-10.3
	c-0.3-0.2-0.5-0.5-0.5-0.9c0-0.3,0.2-0.5,0.5-0.6c3.7-1.4,7.2-3.1,10.7-5.1c2.9-1.5,5.5-3.4,7.9-5.6c0.3-0.3,0.6-0.5,0.8-0.4
	c0.3,0.2,0.5,0.4,0.8,0.6c3.2,3.2,5.7,7.1,7.4,11.3c1.9,4.4,3,9.1,3,13.8c7.1-9.5,14.5-16.5,22.1-21c7.5-4.5,16.1-6.8,24.9-6.7
	c13.9,0,24.3,4.3,31.1,13c6.9,8.6,10.3,21.5,10.3,38.6v53.1c0,3.6,0.1,6.6,0.3,9.1c0.1,2.1,0.4,4.3,0.8,6.4c0.7,2.7,1.7,4.6,3,5.7
	s4.1,1.6,8.1,1.4c1,0,1.5,0.4,1.5,1.1c0,0.8-0.5,1.1-1.5,1.1h-2c-1,0-3-0.1-6.1-0.3c-4.7,0-8.1,0-10.2-0.1s-3.5-0.1-4.3-0.1h-2.3
	c-1,0-2.8,0.1-5.3,0.3c-3.9,0.2-6.8,0.3-8.8,0.3h-5.2c-1,0-1.5-0.4-1.5-1.1s0.5-1.1,1.5-1.1c5.8,0,9.4-1.5,10.8-4.6
	c1.4-3,2.2-9.6,2.2-19.6v-54.1c-0.2-13.4-2.9-23.6-8.3-30.7c-5.3-7.1-12.8-10.7-22.5-10.7c-7.8,0-14.6,1.7-20.3,5.2
	c-5.8,3.5-11.8,9.4-18,17.9v96.5h13.2c1,0,1.5,0.4,1.5,1.1s-0.5,1.1-1.5,1.1h-1.8c-0.8,0-2.5-0.1-5.1-0.3c-4.1,0-6.9,0-8.6-0.1
	s-3-0.1-3.8-0.1h-2.4C89.4,458.5,87.3,458.6,84.3,458.7L84.3,458.7z M227,458.7c-4.6,0.2-8,0.3-10.2,0.3h-5.6c-1,0-1.5-0.4-1.5-1.1
	s0.5-1.1,1.5-1.1c5.1,0,8.3-1.4,9.5-4.1c1.3-2.7,1.9-10.7,1.9-23.9v-65.5c-0.1-3.2-1.1-6.3-2.8-9c-2.5-3.8-5.5-7.3-8.9-10.3
	c-0.3-0.2-0.5-0.5-0.5-0.9c0-0.3,0.2-0.5,0.5-0.6c3.7-1.4,7.2-3.1,10.7-5.1c2.9-1.5,5.5-3.4,7.9-5.6c0.3-0.3,0.6-0.5,0.8-0.4
	c0.3,0.2,0.5,0.4,0.8,0.6c3.2,3.2,5.7,7.1,7.4,11.3c1.9,4.4,3,9.1,3,13.8c7.1-9.5,14.5-16.5,22.1-21c7.5-4.5,16.1-6.8,24.9-6.7
	c13.9,0,24.3,4.3,31.1,13c6.9,8.6,10.3,21.5,10.3,38.6v53.1c0,3.6,0.1,6.6,0.3,9.1c0.1,2.1,0.4,4.3,0.8,6.4c0.7,2.7,1.7,4.6,3,5.7
	s4.1,1.6,8.1,1.4c1,0,1.5,0.4,1.5,1.1s-0.5,1.1-1.5,1.1h-2c-1,0-3-0.1-6.1-0.3c-4.7,0-8.1,0-10.2-0.1s-3.5-0.1-4.3-0.1h-2.3
	c-1,0-2.8,0.1-5.3,0.3c-3.9,0.2-6.8,0.3-8.8,0.3h-5.2c-1,0-1.5-0.4-1.5-1.1s0.5-1.1,1.5-1.1c5.8,0,9.4-1.5,10.8-4.6
	c1.4-3,2.2-9.6,2.2-19.6v-54.1c-0.2-13.4-2.9-23.6-8.3-30.7s-12.8-10.7-22.5-10.7c-7.8,0-14.6,1.7-20.3,5.2
	c-5.8,3.5-11.8,9.4-18,17.9v96.5H255c1,0,1.5,0.4,1.5,1.1S256,459,255,459h-1.8c-0.8,0-2.5-0.1-5.1-0.3c-4.1,0-6.9,0-8.6-0.1
	c-1.7-0.1-3-0.1-3.8-0.1h-2.4C232.1,458.5,230.1,458.6,227,458.7L227,458.7z M437.8,424.2c-3.9,8.3-11,16.6-21.3,25
	c-10.3,8.4-19.8,12.6-28.4,12.6c-9.8,0-17.8-2.7-23.9-8c-6-5.1-9.3-12.6-9.1-20.4c0-9.3,5.2-18.2,15.5-26.7s26.3-16.9,48-25.4
	l21.3-8.4c-0.7-15.1-3-25.7-7.1-31.9c-4.1-6.2-10.8-9.3-20.3-9.3c-3.1,0-6.3,0.4-9.3,1.3c-2.8,0.9-5.4,2.2-7.7,4.1
	c-3.7,2.9-7.2,7.3-10.5,13.3s-5,9.2-5.2,9.5c-0.9,1.7-2.4,3-4.2,3.7c-2.3,0.7-4.8,1-7.2,0.9c-2.6,0.1-5.1-0.5-7.4-1.7
	c-1.9-1.1-2.8-2.5-2.8-4.2c0.1-2.2,1-4.4,2.4-6.1c1.8-2.3,4-4.3,6.5-5.8c7.9-5,16.3-9.2,25.1-12.3c9.1-3.3,17.3-5,24.4-5
	c13.9,0,24.5,3.9,31.8,11.8c7.3,7.9,10.9,19.3,10.9,34.4c0,3.4-0.1,7.5-0.3,12.3s-0.5,12.3-1,22.5c-0.3,6.9-0.6,11.8-0.6,14.5
	c-0.1,2.7-0.1,4.8-0.1,6.4c0,7.8,0.6,13.3,1.7,16.6c1.1,3.3,2.9,5,5.5,5c1.9,0,4.1-1.4,6.7-4.2c2.7-2.9,5.1-6.2,7-9.8
	c0.5-0.9,1.7-1.1,2.5-0.6s1.1,1.7,0.6,2.5c0,0,0,0,0,0.1c-3,4.2-7.7,8.7-14.1,13.5s-11.6,7.1-15.6,7.1c-4.7,0-8.3-1.5-10.8-4.6
	c-2.5-3-3.7-7.5-3.7-13.5c0-2.7,0.1-5.8,0.3-9.3C437.2,430.8,437.5,427.4,437.8,424.2z M372.8,426c-0.1,6.7,2.8,13.2,8,17.5
	c5.3,4.7,11.9,7.1,19.7,7.1c7.3,0,14.9-3.8,23-11.3s12.9-14.3,14.6-20.4c0.8-11,1.4-19,1.5-23.9c0.2-4.9,0.3-9.8,0.3-14.7v-5.3
	l-20.8,8.9c-19,8-31.4,14.7-37.3,20.2C375.8,409.5,372.8,416.8,372.8,426L372.8,426z M557,428.8c-4.9,10-11,18-18.2,23.9
	c-7.2,5.9-14.6,8.9-22.2,8.9c-8.5,0-14.6-2.8-18.5-8.4c-3.9-5.6-5.8-14.5-5.8-26.7V346h-14c-0.2,0-0.3-0.2-0.3-0.5
	c0-0.3,0.1-0.6,0.3-0.8l32.5-37.3c0.3-0.3,0.6-0.5,0.8-0.4c0.2,0.1,0.3,0.3,0.3,0.6v24.6c9.3,0,16.7,0,22.1-0.1
	c5.4-0.1,9.5-0.1,12.2-0.1c3.4-0.2,5.7-0.2,7-0.1c1.3,0.1,1.9,0.3,1.9,0.6c0,0.8-1.1,2.5-3.3,4.8c-2.2,2.4-5.2,5.3-9.1,8.9h-6.9
	c-7.1-0.2-12.4-0.3-16-0.3h-8.4v79.8c0,9.1,1.4,16.1,4.2,20.8c2.4,4.5,7.2,7.3,12.3,7.1c5.2,0,10.2-2.3,14.7-7
	c4.6-4.7,8.3-11.1,11.2-19.4c0.3-1,1.1-1.3,2.3-0.8C557.1,427,557.5,427.8,557,428.8L557,428.8z M657.3,449.6
	c-5.8,3.9-12,6.9-18.7,9c-6.4,2-13,2.9-19.7,2.9c-19,0-34.3-5.7-46.1-17c-11.8-11.3-17.7-26-17.7-43.9c0-9,1.9-17.8,5.6-26
	c3.8-8.7,9.2-16.6,16-23.2c6.6-6.8,14.4-12.3,23.1-16.1c8.1-3.7,17-5.6,25.9-5.7c5.7-0.1,11.4,0.6,17,1.9c4.7,1.1,9.2,3,13.2,5.7
	c4.7,3,8.6,7.2,11.2,12.2c2.4,4.4,3.4,9.5,2.8,14.5c-0.1,2.3-1.2,4.5-3,6c-1.7,1.3-4.2,1.9-7.6,1.9h-86.6c-0.7,3.1-1.3,6.2-1.7,9.3
	c-0.4,3.4-0.6,6.8-0.6,10.3c0,15.6,5.9,28.7,17.8,39.5c11.9,10.8,26.4,16.1,43.7,16.1c14.1,0,26.2-4,36.6-11.9s19.4-20.4,27.2-37.3
	c0.7-1.5,1.3-2.2,1.9-1.9s0.5,1.1-0.1,2.4c-4.5,10.8-10.4,20.9-17.5,30.1C673.6,436.5,665.9,443.7,657.3,449.6z M647.9,358.2
	c0-6.1-2.8-11.5-8.3-16.1c-5.5-4.7-12.5-7-21-7c-11.5,0-21.2,3-29.1,9c-7.9,6-13.3,14.5-16.4,25.5c5.8,0,11.5,0,17.1-0.1
	c5.7-0.1,13.2-0.2,22.5-0.4c6.6-0.2,11.4-0.3,14.4-0.4s5.7-0.1,8.3-0.1c2.1-0.1,4.1-0.3,6.1-0.9c2.4-0.6,3.7-1.1,4.1-1.4
	c0.8-1,1.3-2.2,1.7-3.4C647.7,361.3,647.9,359.7,647.9,358.2L647.9,358.2z M23,597.7L23,597.7z"/>
</svg>
